<?xml version="1.0" encoding="utf-8"?>
<!-- Generator: Adobe Illustrator 24.0.1, SVG Export Plug-In . SVG Version: 6.00 Build 0)  -->
<svg version="1.1" id="Calque_1" xmlns="http://www.w3.org/2000/svg" xmlns:xlink="http://www.w3.org/1999/xlink" x="0px" y="0px"
	 viewBox="0 0 1775.5 508.2" style="enable-background:new 0 0 1775.5 508.2;" xml:space="preserve">
<style type="text/css">
	.st0{display:none;}
	.st1{display:inline;fill:#05A62E;}
	.st2{display:inline;fill:#FFFFFF;}
	.st3{display:inline;}
	.st4{fill:url(#SVGID_1_);}
	.st5{fill:#FFFFFF;}
	.st6{fill:url(#SVGID_2_);}
	.st7{fill:url(#SVGID_3_);}
	.st8{fill:url(#SVGID_4_);}
	.st9{fill:url(#SVGID_5_);}
	.st10{fill:url(#SVGID_6_);}
	.st11{opacity:0.2;fill:url(#SVGID_7_);enable-background:new    ;}
	.st12{fill:url(#SVGID_8_);}
	.st13{fill:url(#SVGID_9_);}
	.st14{opacity:0.7;}
	.st15{fill:#F4F7FA;}
	.st16{fill:url(#SVGID_10_);}
	.st17{fill:url(#SVGID_11_);}
	.st18{fill:none;}
	.st19{fill:url(#SVGID_12_);}
	.st20{fill:url(#SVGID_13_);}
	.st21{fill:url(#SVGID_14_);}
	.st22{fill:#FEC045;}
	.st23{fill:url(#SVGID_15_);}
	.st24{opacity:0.15;fill:url(#SVGID_16_);enable-background:new    ;}
	.st25{opacity:0.42;}
	.st26{fill:url(#SVGID_17_);}
	.st27{fill:url(#SVGID_18_);}
	.st28{opacity:0.26;fill:url(#SVGID_19_);enable-background:new    ;}
	.st29{opacity:0.53;}
	.st30{fill:url(#SVGID_20_);}
	.st31{fill:url(#SVGID_21_);}
	.st32{opacity:0.2;fill:url(#SVGID_22_);enable-background:new    ;}
	.st33{fill:url(#SVGID_23_);}
	.st34{enable-background:new    ;}
	.st35{fill:#0070C0;}
	.st36{fill:url(#SVGID_24_);}
	.st37{fill:url(#SVGID_25_);}
	.st38{fill:url(#SVGID_26_);}
	.st39{fill:url(#SVGID_27_);}
	.st40{fill:url(#SVGID_28_);}
	.st41{fill:url(#SVGID_29_);}
	.st42{opacity:0.2;fill:url(#SVGID_30_);enable-background:new    ;}
	.st43{fill:#035689;}
	.st44{opacity:0.2;fill:url(#SVGID_31_);enable-background:new    ;}
	.st45{font-family:'Comfortaa-Bold';}
	.st46{font-size:126.201px;}
</style>
<g class="st0">
	<path class="st1" d="M995.8,73.6C883,73.6,791.6,165,791.6,277.8c0,52,19.4,99.4,51.4,135.5V278.2c0-28.8,6.7-54.9,20.2-78.4
		c13.5-23.4,31.7-41.9,54.8-55.3c23-13.5,48.7-20.3,77.2-20.3c28.4,0,54.4,6.8,77.8,20.3s41.8,31.9,55.1,55.3
		c13.3,23.5,19.9,49.6,19.9,78.4s-6.2,54.9-18.5,78.4c-12.4,23.4-29.4,41.7-50.9,55.1c0,0-10.6,6.5-23.1,11.3
		c-13.9,5.4-37.6,9.6-67.5,9.6c-13.5,0-24.5-11.1-24.5-24.6c0-0.1,0-0.1,0-0.1c0-13.1,10.4-23.8,23.4-24.5c3.5-0.2,6.6-0.5,9.5-0.7
		c11.6-1.2,22.3-2.4,35.1-7.5c6.8-2.7,11.8-5.7,14-6.9c14.9-9,26.8-21.4,35.4-37.1c8.7-15.7,13.1-33.3,13.1-52.9
		c0-19.5-4.3-37.3-13.1-53.2c-8.7-15.8-20.5-28.3-35.4-37.4c-15-9-31.7-13.6-50.1-13.6c-12.7,0-24.5,2.1-35.5,6.4
		c-6.7,2.6-11.8,5.5-14.6,7.2c-3.5,2.1-9.7,6.1-16.2,12.4c-3.6,3.4-12.2,12.1-18.9,25c-10.8,20.6-11,40.5-10.4,50.2
		c-0.1,35.3-0.1,70.6-0.2,106v-0.1v76.7c28.7,15.4,61.5,24.1,96.3,24.1c112.8,0,204.2-91.4,204.2-204.2
		C1199.9,165,1108.6,73.6,995.8,73.6z M918.3,313.4c1-6.4,6.4-39.3,26-64.6c32.5-42.1,89.4-44.4,97.8-44.6
		c-4.3,10.8-8.5,23-12.2,36.5c-0.4,1.3-0.7,2.6-1,3.9c-12-0.4-26.9,0.7-43,5.9c-12.7,4.1-37,12-54.3,36.2
		c-6.8,9.6-10.9,19.4-13.4,28.3C918.1,314.4,918.2,313.9,918.3,313.4z M922.4,399.4c-0.2-2.7-0.5-5.3-0.8-7.9
		c0.5-3.6,1.3-7.5,2.3-11.6C923.3,387.7,922.7,394.4,922.4,399.4z M927.7,367.4c0,0,0,0.1-0.1,0.1c-1.2,2.4-2.2,4.7-3.1,7
		c-1.5,3.9-2.6,7.7-3.4,11.3c-0.7,3-1.1,5.9-1.5,8.6c-0.8,7.1-0.6,12.6-0.5,14.6c-3.5-34.3-5.3-59.3-5.2-61.2
		c0.1-2.6,0.3-5.1,0.3-5.1c0.1-0.8,0.1-1.5,0.2-2.4c0.5-3.8,1.1-8.1,2.3-12.8c0-0.1,0.1-0.3,0.1-0.5c5.7-22.4,17.2-35.8,17.2-35.8
		c15.3-17.7,35.7-22.2,44.4-24.1c17.8-3.9,32.9-1.5,44.9,0.8c1,0.2,2,0.4,3,0.6c5,1,9.6,2.1,13.6,3.4c4.5,1.4,8.3,2.7,11.6,3.9
		c-0.1,11.4-0.4,23.3-1.2,35.7c-0.8,13.8-2.1,27-3.6,39.4c-8.4-5.6-30.5-18.6-60-17c-9.9,0.5-28.4,1.6-44.5,15
		C935.8,354.5,931,360.9,927.7,367.4z"/>
	<path class="st2" d="M924.5,374.5c-0.2,1.8-0.3,3.6-0.5,5.3c-1.1,4.1-1.8,8-2.3,11.6c-0.2-1.9-0.3-3.8-0.5-5.6
		C921.9,382.2,923,378.4,924.5,374.5z"/>
	<path class="st2" d="M1028.8,244.6c-2.2,8.1-3.9,16-5.3,23.4c-12-2.3-27.1-4.7-44.9-0.8c-8.6,1.9-29.1,6.4-44.4,24.1
		c0,0-11.6,13.3-17.2,35.8c0,0.1-0.1,0.3-0.1,0.5c0.2-3.8,0.5-7.9,1.2-12.5c2.5-8.9,6.6-18.7,13.4-28.3
		c17.3-24.2,41.6-32.1,54.3-36.2C1001.8,245.3,1016.8,244.1,1028.8,244.6z"/>
	<path class="st1" d="M927.6,367.5c-1.2,3.6-2.2,6.9-3,9.7c-0.2,0.9-0.5,1.7-0.7,2.6c-1.1,4.1-1.8,8-2.3,11.6
		c-0.7,4.7-0.9,8.8-1.1,12.1c-0.3-3.1-0.5-6.1-0.9-9.2c0.3-2.7,0.8-5.5,1.5-8.6c0.8-3.6,1.9-7.4,3.4-11.3
		C925.4,372.2,926.4,369.9,927.6,367.5z"/>
	<path class="st1" d="M1044.9,246.1c-1.7,8.4-3.3,17-4.8,25.8c-4-1.2-8.6-2.4-13.6-3.4c-1-0.2-2-0.4-3-0.6
		c-12-2.3-27.1-4.7-44.9-0.8c-8.6,1.9-29.1,6.4-44.4,24.1c0,0-11.6,13.3-17.2,35.8c0,0.1-0.1,0.3-0.1,0.5c-1.1,4.7-1.8,9-2.3,12.8
		c0-6,0.7-15,3.5-25.3c2.5-8.9,6.6-18.7,13.4-28.3c17.3-24.2,41.6-32.1,54.3-36.2c16.1-5.2,31-6.4,43-5.9
		C1035,244.8,1040.4,245.4,1044.9,246.1z"/>
</g>
<g class="st0">
	<g class="st3">
		<circle cx="982.2" cy="-118.4" r="380.5"/>
	</g>
	<polygon class="st3" points="1218.3,-141.5 1218.1,-140.5 1218.1,-141.5 	"/>
	<g class="st3">
		<g>
			<path d="M1340.1-118.4c0,164-110.3,302.2-260.6,344.6c-7.6,2.1-15.2,4-22.9,5.6c-1.2,0.3-2.3,0.5-3.5,0.7
				c-2.2,0.4-4.4,0.9-6.5,1.2c-20.8,3.9-42.4,5.8-64.3,5.8c-20,0-39.7-1.7-58.8-4.9c-8-1.2-15.9-2.8-23.7-4.6
				c-0.1-0.1-0.2-0.1-0.4-0.1c-0.7-0.1-1.4-0.3-2-0.5c-1.5-0.3-3-0.6-4.5-1.1c-11.7-3-23.2-6.5-34.4-10.7c-3-1.2-6.1-2.3-9.1-3.6
				c-5.1-2-10.2-4.1-15.1-6.4c-7.3-3.3-14.5-6.9-21.5-10.6c-3.6-2-7-3.9-10.5-6c-9.4-5.4-18.5-11.3-27.2-17.5
				c-13.2-9.4-25.7-19.6-37.5-30.7c-1-0.9-2-1.8-3-2.8c-0.4-0.4-0.9-0.9-1.3-1.2c-1.2-1.2-2.3-2.3-3.4-3.3l-1.2-1.2
				c-2-2-3.9-4-5.9-6c-0.1-0.2-0.4-0.4-0.6-0.7c-0.2-0.2-0.4-0.4-0.7-0.7c-2.8-2.9-5.5-6-8.1-9c-0.2-0.2-0.4-0.4-0.6-0.7
				c-0.3-0.2-0.5-0.4-0.7-0.7c-0.5-0.5-1-1.1-1.4-1.7c-0.4-0.4-0.9-0.9-1.2-1.3c-0.4-0.4-0.8-0.9-1.2-1.3c-1.5-1.7-2.8-3.4-4.2-5.2
				c-0.3-0.2-0.4-0.5-0.7-0.7c-0.2-0.2-0.4-0.4-0.6-0.7v-0.1c-2.1-2.7-4.2-5.4-6.3-8.1c-0.4-0.5-0.7-0.9-1-1.4c-1.1-1.4-2-2.7-3-4.1
				c-2.3-3.1-4.4-6.3-6.5-9.4c-1.4-2-2.6-3.8-3.8-5.8c-3.3-5.1-6.5-10.2-9.6-15.5c-2.3-3.8-4.4-7.8-6.5-11.7
				c-2.8-5.2-5.5-10.6-8.1-16c-1-2.2-2-4.4-3-6.5c-9.2-20.5-16.4-42-21.6-64.3c-0.2-0.4-0.2-0.9-0.4-1.4
				c-4.8-21.3-7.7-43.2-8.6-65.7c-0.2-2.3-0.2-4.6-0.2-6.9c-0.2-2.3-0.2-4.7-0.2-7c0-5.7,0.2-11.3,0.4-16.9
				c8.8-189.8,165.5-341,357.6-341C1179.8-476.3,1340.1-316.1,1340.1-118.4z"/>
		</g>
		<g>
			<g>
				
					<linearGradient id="SVGID_1_" gradientUnits="userSpaceOnUse" x1="824.0112" y1="-270.2001" x2="1154.9778" y2="828.974" gradientTransform="matrix(1 0 0 1 0 -284)">
					<stop  offset="0" style="stop-color:#A8D29F"/>
					<stop  offset="0.9964" style="stop-color:#A8D29F"/>
				</linearGradient>
				<path class="st4" d="M1267.7-223.6c-3.6,1.6-7.2,3.3-10.7,5.1c-1.6,0.8-3.2,1.6-4.8,2.4c-1.6,0.9-3.2,1.7-4.7,2.5
					c-3.3,1.7-6.5,3.6-9.6,5.4c-2.6,1.5-5.2,3.1-7.7,4.7c-2.3,1.4-4.5,2.8-6.7,4.4c-2.2,1.4-4.4,2.9-6.5,4.4
					c-4.3,3.1-8.4,6.1-12.5,9.3c-59.4,47.3-96.5,113-130.3,181.4c-4.1,8.3-8.2,16.6-12.3,25c-7.6,15.8-15.3,31.6-23,47.2
					c-0.2,0.3-0.3,0.5-0.4,0.7c-0.3,0.5-0.5,1-0.7,1.4c-0.4,0.7-0.7,1.3-1,2c-5.2,10.5-10.6,20.9-16.1,31.2c-1.5,3-3.1,6-4.8,8.9
					c-5.1,9.3-10.3,18.4-15.8,27.4c-3.3,5.3-6.5,10.5-9.9,15.7c-19,29.1-40.6,56.1-66.8,79.2c-8-1.2-15.9-2.8-23.7-4.6
					c-0.1-0.1-0.2-0.1-0.4-0.1c-0.7-0.1-1.4-0.3-2-0.5c-1.5-0.3-3-0.6-4.5-1.1c-11.7-3-23.2-6.5-34.4-10.7c-3-1.2-6.1-2.3-9.1-3.6
					c-5.1-2-10.2-4.1-15.1-6.4c-7.3-3.3-14.5-6.9-21.5-10.6c-3.6-2-7-3.9-10.5-6c-9.4-5.4-18.5-11.3-27.2-17.5
					c-13.2-9.4-25.7-19.6-37.5-30.7c-1-0.9-2-1.8-3-2.8c-0.4-0.4-0.9-0.9-1.3-1.2c-1.2-1.2-2.3-2.3-3.4-3.3l-1.2-1.2
					c-2-2-3.9-4-5.9-6c-0.1-0.2-0.4-0.4-0.6-0.7c-0.2-0.2-0.4-0.4-0.7-0.7c-2.8-2.9-5.5-6-8.1-9c-0.2-0.2-0.4-0.4-0.6-0.7
					c-0.3-0.2-0.5-0.4-0.7-0.7c-0.5-0.5-1-1.1-1.4-1.7c-0.4-0.4-0.9-0.9-1.2-1.3c-0.4-0.4-0.8-0.9-1.2-1.3c-1.5-1.7-2.8-3.4-4.2-5.2
					c-0.3-0.2-0.4-0.5-0.7-0.7c-0.2-0.2-0.4-0.4-0.6-0.7v-0.1c-2.1-2.7-4.2-5.4-6.3-8.1c-0.4-0.5-0.7-0.9-1-1.4
					c-1.1-1.4-2-2.7-3-4.1c-2.3-3.1-4.4-6.3-6.5-9.4c-1.4-2-2.6-3.8-3.8-5.8c-3.3-5.1-6.5-10.2-9.6-15.5c-2.3-3.8-4.4-7.8-6.5-11.7
					c-2.8-5.2-5.5-10.6-8.1-16c-1-2.2-2-4.4-3-6.5c45.7-37.7,77.9-86.4,105.8-138.7c0.8-1.4,1.6-2.9,2.3-4.4c4.3-8,8.4-16,12.4-24.1
					c2.7-5.3,5.3-10.6,7.9-15.9c11.5-23.4,22.8-47.1,34.5-70.4c6-12.1,12.2-24.1,18.6-35.9c1.6-2.9,3.2-5.8,4.8-8.6
					c27.2-48.9,59-94.1,103.1-129.1v-0.1c11-8.6,22.7-16.8,35.3-24c1.2-0.7,2.5-1.5,3.8-2.2c1.2-0.7,2.5-1.5,3.8-2.1
					c1.9-1,3.8-2,5.7-3c4.8-2.5,9.7-4.9,14.8-7.2c18.4,15.3,37,30.6,55.4,46c49.2,40.8,98.3,81.4,147.5,122.2
					c18.7,15.4,37.3,30.8,55.9,46.3C1267.1-224.1,1267.4-223.8,1267.7-223.6z"/>
				<path class="st5" d="M1223.9-227.3c-2,1.1-3.9,2.3-5.8,3.4h-0.1c-13.1,7.7-25.1,16.3-36.4,25.5
					C1126-152.9,1090.2-91,1057.8-26.3v0.1c-2.7,5.4-5.4,10.8-8.1,16.2c-8.5,17.5-16.9,35.2-25.6,52.6c-0.5,1.1-1,2.1-1.6,3.2
					c-10.2,20.7-20.6,41.1-32,60.9c-1.2,2.3-2.6,4.6-3.9,6.8c-4,6.9-8.1,13.7-12.4,20.5c-1.6,2.5-3.3,5-4.9,7.6h-0.1
					c-18.5,28.1-39.5,54.2-64.8,76.7c-0.2,0.2-0.5,0.4-0.7,0.6c-3,2.8-6.3,5.4-9.4,8.1c-0.5,0.4-1,0.8-1.5,1.2
					c-11.7-3-23.2-6.5-34.4-10.7c-3-1.2-6.1-2.3-9.1-3.6c-5.1-2-10.2-4.1-15.1-6.4c-7.3-3.3-14.5-6.9-21.5-10.6c-3.6-2-7-3.9-10.5-6
					c-9.4-5.4-18.5-11.3-27.2-17.5c-13.2-9.4-25.7-19.6-37.5-30.7c-1-0.9-2-1.8-3-2.8c-0.4-0.4-0.9-0.9-1.3-1.2
					c-1.2-1.2-2.3-2.3-3.4-3.3l-1.2-1.2c-2-2-3.9-4-5.9-6c-0.1-0.2-0.4-0.4-0.6-0.7c-0.2-0.2-0.4-0.4-0.7-0.7c-2.8-2.9-5.5-6-8.1-9
					c-0.2-0.2-0.4-0.4-0.6-0.7c-0.3-0.2-0.5-0.4-0.7-0.7c-0.5-0.5-1-1.1-1.4-1.7c-0.4-0.4-0.9-0.9-1.2-1.3c-0.4-0.4-0.8-0.9-1.2-1.3
					c-1.5-1.7-2.8-3.4-4.2-5.2c-0.3-0.2-0.4-0.5-0.7-0.7c-0.2-0.2-0.4-0.4-0.6-0.7v-0.1c-2.1-2.7-4.2-5.4-6.3-8.1
					c-0.4-0.5-0.7-0.9-1-1.4c-1.1-1.4-2-2.7-3-4.1c-2.3-3.1-4.4-6.3-6.5-9.4c-1.4-2-2.6-3.8-3.8-5.8c-3.3-5.1-6.5-10.2-9.6-15.5
					c-2.3-3.8-4.4-7.8-6.5-11.7c2.4-1.8,4.8-3.6,7.1-5.6c50.7-41.1,84.8-96,114.9-154.2c1.2-2.2,2.3-4.4,3.4-6.6
					c4.1-8,8.1-16,12.1-24.1c3.3-6.9,6.7-13.8,10-20.7c6.2-12.7,12.3-25.4,18.5-38c8.9-18.1,18.1-36,27.7-53.5
					c1.7-2.9,3.3-5.7,4.9-8.6c25.8-45,55.6-86.6,96-119.6c12.9-10.5,27-20.2,42.2-28.8c12.9,10.7,25.8,21.4,38.7,32.1
					c47.4,39.2,94.9,78.6,142.4,117.9C1197.3-249.4,1210.6-238.4,1223.9-227.3z"/>
				<g>
					<g>
						
							<linearGradient id="SVGID_2_" gradientUnits="userSpaceOnUse" x1="658.05" y1="342" x2="687.0458" y2="342" gradientTransform="matrix(1 0 0 1 0 -284)">
							<stop  offset="0" style="stop-color:#A8D29F"/>
							<stop  offset="0.9964" style="stop-color:#A8D29F"/>
						</linearGradient>
						<path class="st6" d="M686.9,77.6c-0.1,1.7-0.4,3.3-0.9,4.9c-1.4-2-2.6-3.8-3.8-5.8c-3.3-5.1-6.5-10.2-9.6-15.5
							c-2.3-3.8-4.4-7.8-6.5-11.7c-2.8-5.2-5.5-10.6-8.1-16c4.3,2,8.6,4.7,12.3,7.8c0.9,0.8,1.8,1.6,2.7,2.4
							c0.1,0.2,0.2,0.2,0.2,0.3c6.8,6.5,11.1,14.2,12.9,22C687,69.8,687.2,73.7,686.9,77.6z"/>
						
							<linearGradient id="SVGID_3_" gradientUnits="userSpaceOnUse" x1="849.35" y1="505.5739" x2="897.35" y2="505.5739" gradientTransform="matrix(1 0 0 1 0 -284)">
							<stop  offset="0" style="stop-color:#A8D29F"/>
							<stop  offset="0.9964" style="stop-color:#A8D29F"/>
						</linearGradient>
						<path class="st7" d="M897.4,229.3c-1.5-0.3-3-0.6-4.5-1.1c-11.7-3-23.2-6.5-34.4-10.7c-3-1.2-6.1-2.3-9.1-3.6
							c3.6-0.1,7-0.1,10.4,0.4c12.6,1.1,24.6,5.2,34.3,12.4c0.2,0.1,0.2,0.1,0.3,0.2c0.7,0.5,1.5,1.2,2.2,1.7
							C896.9,228.9,897.2,229.1,897.4,229.3z"/>
					</g>
					<g>
						
							<linearGradient id="SVGID_4_" gradientUnits="userSpaceOnUse" x1="944.58" y1="-120.138" x2="1063.42" y2="-120.138" gradientTransform="matrix(1 0 0 1 0 -284)">
							<stop  offset="0" style="stop-color:#A8D29F"/>
							<stop  offset="0.9964" style="stop-color:#A8D29F"/>
						</linearGradient>
						<path class="st8" d="M1008-438.8c18.5,15.3,37,30.6,55.5,46c-4.4,4.3-9.9,8.3-16.5,11.9c-1.7,0.9-3.5,1.8-5.3,2.6
							c-26.7,12.2-59.3,12.4-81.3-3.5c-1-0.7-1.9-1.4-2.8-2.2c-5.8-4.8-10.5-10.7-12.8-16.3C963.3-415.1,984.2-428.1,1008-438.8z"/>
						
							<linearGradient id="SVGID_5_" gradientUnits="userSpaceOnUse" x1="1166.6946" y1="56.05" x2="1267.7001" y2="56.05" gradientTransform="matrix(1 0 0 1 0 -284)">
							<stop  offset="0" style="stop-color:#A8D29F"/>
							<stop  offset="0.9964" style="stop-color:#A8D29F"/>
						</linearGradient>
						<path class="st9" d="M1210.9-270.6c18.9,15.7,37.8,31.4,56.8,47c-23.6,10.6-44.4,23.6-63.1,38.3c-8.2-2.9-14.9-6.3-21-11.3
							c-0.7-0.6-1.4-1.2-2-1.8c-0.1-0.1-0.2-0.1-0.2-0.2c-9.8-9.1-14.9-20.5-14.7-31.7c0.2-11.3,5.7-22.2,17.2-30.1
							c1.5-1,3.2-2.1,4.9-3C1195.4-267,1202.9-269.4,1210.9-270.6z"/>
					</g>
				</g>
				
					<linearGradient id="SVGID_6_" gradientUnits="userSpaceOnUse" x1="-2012.5707" y1="-3200.0339" x2="-1958.4369" y2="-3020.2505" gradientTransform="matrix(0.6379 -0.7701 0.7701 0.6379 4588.772 377.4226)">
					<stop  offset="0" style="stop-color:#A8D29F"/>
					<stop  offset="0.9964" style="stop-color:#A8D29F"/>
				</linearGradient>
				<path class="st10" d="M972.7-166.9c41.5,34.3,53.7,101.4,29.8,151.9c-23.9,50.4-79.2,61.6-121,26.9
					C840.1-22.5,827.8-89.6,851.7-140S930.9-201.6,972.7-166.9z"/>
				<g>
					<path class="st5" d="M978.9-39.1c-2.4-2-4.7-3.9-7.1-5.9c3.4-8.1,5.2-15.7,5.5-22.9V-68c0-0.4,0-0.8,0.1-1.2v-0.1
						c0-2.5-0.1-4.9-0.4-7.3c0-0.2-0.1-0.4-0.1-0.6c-1.5-9.7-5.9-17.6-13.3-23.7c-6.8-5.7-13.9-7.6-21.2-6
						c-5.5,1.3-11.3,4.5-17.5,10.5c-1.9,1.7-3.8,3.8-5.8,6.1c-0.1,0.1-0.2,0.2-0.2,0.3c-0.1-0.1-0.1-0.2-0.2-0.2
						c-3.6-2.9-7-5.8-10.6-8.7c-2.5-2.1-5.1-4.2-7.6-6.3c0.2-0.4,0.5-0.9,0.7-1.3c2.4-4.1,5.1-7.8,8-10.9c1.7-1.8,3.5-3.5,5.3-4.9
						c2-1.7,2-5.3,0.1-7.3c-2.1-2.2-4.2-4.3-6.3-6.4c-0.4-0.4-0.9-0.9-1.3-1.3c-1.6-1.6-3.8-1.6-5.4-0.1c-2.5,2.5-4.9,5.4-7.2,8.1
						c-2.3,2.8-4.4,5.6-6.3,8.6c-0.8,1.1-1.5,2.2-2.3,3.3c-1.2-1-2.5-2-3.7-3.1c-0.9-0.7-1.8-1.4-2.7-2.3c-1.9-1.5-4.4-1.3-5.6,0.8
						c-0.4,0.6-0.6,1.2-0.7,1.7c-0.3,1.7,0.4,3.6,1.8,4.7c0.7,0.6,1.5,1.2,2.2,1.8c1.5,1.2,3,2.4,4.4,3.6
						C876.3-99.3,874-89.1,875-80c0.5,4.5,1.7,8.6,3.6,12.3c2.1,4,5.1,7.5,8.9,10.7c1.6,1.3,3.2,2.5,4.8,3.4
						c4.2,2.5,8.5,3.6,12.9,3.3c1.3,0,2.5-0.1,3.8-0.5c7.2-1.7,14.7-7.3,22.4-16.6c4.2,3.5,8.5,7,12.7,10.6c2.6,2.2,5.2,4.3,7.8,6.5
						c-2.7,4.7-5.7,8.9-9.1,12.9c-2.2,2.5-4.5,4.8-7,7c-2,1.9-2.1,5.7,0,7.8c3.3,3.2,6.6,6.5,9.9,9.7c1.6,1.6,3.9,1.5,5.4-0.1
						c2-2.3,4.1-4.6,5.9-7.2l0.1-0.1c0.4-0.4,0.7-0.9,1.1-1.4c3-4.2,6-8.9,8.6-13.9c0.3-0.6,0.6-1.1,0.9-1.6v-0.1
						c0.1-0.1,0.1-0.2,0.1-0.2c2.3,2,4.7,3.8,7,5.8c2,1.6,4.4,1.4,5.5-0.9c0-0.1,0-0.1,0.1-0.1C981.3-34.7,980.7-37.5,978.9-39.1z
						 M899.8-79.4c-0.3-0.2-0.5-0.4-0.8-0.6c-1-0.8-1.8-1.7-2.4-2.8c-0.9-1.4-1.5-3-1.7-4.7c-0.4-2.9,0.2-6.5,1.4-9.7
						c0.1-0.2,0.1-0.3,0.2-0.4c0.5,0.4,0.9,0.8,1.5,1.2l0.1,0.1c2.2,1.8,4.2,3.6,6.4,5.3c3,2.5,6,5,9,7.5c-2,2.3-3.7,3.6-5.5,4.6
						h-0.1c-0.7,0.4-1.4,0.7-2,0.8C903.8-77.7,901.7-78.1,899.8-79.4z M955.7-58.2c-2.7-2.3-5.4-4.5-8.1-6.8
						c-3.6-3-7.1-5.9-10.7-8.9c3-3,5.9-5.1,8.4-5.6s5,0.2,7.4,2.1c0.1,0.1,0.1,0.1,0.1,0.2c2.8,2.3,4.4,5.1,4.9,8.3
						C958.2-65.5,957.6-62.1,955.7-58.2z"/>
				</g>
				
					<linearGradient id="SVGID_7_" gradientUnits="userSpaceOnUse" x1="682.0999" y1="286.1685" x2="1267.7" y2="286.1685" gradientTransform="matrix(1 0 0 1 0 -284)">
					<stop  offset="0" style="stop-color:#AA80F9"/>
					<stop  offset="0.9964" style="stop-color:#6165D7"/>
				</linearGradient>
				<path class="st11" d="M1267.7-223.6c-3.6,1.6-7.2,3.3-10.7,5.1c-1.6,0.8-3.2,1.6-4.8,2.4c-1.6,0.9-3.2,1.7-4.7,2.5
					c-3.3,1.7-6.5,3.6-9.6,5.4c-2.6,1.5-5.2,3.1-7.7,4.7c-2.3,1.4-4.5,2.8-6.7,4.4c-2.2,1.4-4.4,2.9-6.5,4.4
					c-4.3,3.1-8.4,6.1-12.5,9.3c-59.4,47.3-96.5,113-130.3,181.4c-4.1,8.3-8.2,16.6-12.3,25c-7.6,15.8-15.3,31.6-23,47.2
					c-0.2,0.3-0.3,0.5-0.4,0.7c-0.3,0.5-0.5,1-0.7,1.4c-0.4,0.7-0.7,1.3-1,2c-5.2,10.5-10.6,20.9-16.1,31.2c-1.5,3-3.1,6-4.8,8.9
					c-5.1,9.3-10.3,18.4-15.8,27.4c-3.3,5.3-6.5,10.5-9.9,15.7c-19,29.1-40.6,56.1-66.8,79.2c-8-1.2-15.9-2.8-23.7-4.6
					c-0.1-0.1-0.2-0.1-0.4-0.1c-0.7-0.1-1.4-0.3-2-0.5c-1.5-0.3-3-0.6-4.5-1.1c-11.7-3-23.2-6.5-34.4-10.7c-3-1.2-6.1-2.3-9.1-3.6
					c-5.1-2-10.2-4.1-15.1-6.4c-7.3-3.3-14.5-6.9-21.5-10.6c-3.6-2-7-3.9-10.5-6c-9.4-5.4-18.5-11.3-27.2-17.5
					c-13.2-9.4-25.7-19.6-37.5-30.7c-1-0.9-2-1.8-3-2.8c-0.4-0.4-0.9-0.9-1.3-1.2c-1.2-1.2-2.3-2.3-3.4-3.3l-1.2-1.2
					c-2-2-3.9-4-5.9-6c-0.1-0.2-0.4-0.4-0.6-0.7c-0.2-0.2-0.4-0.4-0.7-0.7c-2.8-2.9-5.5-6-8.1-9c-0.2-0.2-0.4-0.4-0.6-0.7
					c-0.3-0.2-0.5-0.4-0.7-0.7c-0.5-0.5-1-1.1-1.4-1.7c-0.4-0.4-0.9-0.9-1.2-1.3c-0.4-0.4-0.8-0.9-1.2-1.3c-1.5-1.7-2.8-3.4-4.2-5.2
					c-0.3-0.2-0.4-0.5-0.7-0.7c-0.2-0.2-0.4-0.4-0.6-0.7v-0.1c-2.1-2.7-4.2-5.4-6.3-8.1c-0.4-0.5-0.7-0.9-1-1.4
					c-1.1-1.4-2-2.7-3-4.1c-2.3-3.1-4.4-6.3-6.5-9.4c-1.4-2-2.6-3.8-3.8-5.8c1.5,0.3,3.1,0.6,4.7,0.9c11.5,2.3,23.5,5.3,36.1,9.3
					c1.1,0.4,2.2,0.7,3.3,1.1c0.1,0.1,0.2,0.1,0.3,0.1c10.3,3.3,21.1,7.4,32.3,12.1c14.9,6.3,28.5,11.3,41.1,15.1
					c11.3,3.3,21.7,5.7,31.4,7.2s18.6,2.1,26.7,1.7c3.8-0.1,7.5-0.4,11-0.9h0.1c10.1-1.4,18.9-4.4,26.7-8.6h0.1
					c2.2-1.1,4.2-2.3,6.2-3.7c18.7-12.5,30.9-33.3,40.3-59c0.9-2.5,1.8-5.2,2.8-7.8c0,0,0,0,0-0.1c1.5-4.5,2.9-9.2,4.3-13.9
					c6.3-20.9,11.6-43.8,18.1-67.2V-37c2.9-10.2,6-20.5,9.6-30.7v-0.1c0.1-0.1,0.1-0.1,0.1-0.2c5.7-16.3,12.2-32.3,19.9-47.6
					c0.6-1.2,1.2-2.4,1.9-3.6c1.2-2.4,2.5-4.8,3.8-7.1v-0.1c3.9-7.5,8.2-14.7,12.9-21.6c8.1-12,17.3-23,27.3-32.8
					c2.6-2.5,5.3-5,8.1-7.4c31.4-27.3,70.8-43.3,115.6-42.1c13.2,0.1,26.7,1.7,40.2,4.6c3.6,0.8,7.2,1.4,11.1,1.7h0.1
					c14,1.5,30.3,0.9,48.7-0.4C1267.1-224.1,1267.4-223.8,1267.7-223.6z"/>
			</g>
		</g>
		<g>
			
				<linearGradient id="SVGID_8_" gradientUnits="userSpaceOnUse" x1="1100.6263" y1="276.4733" x2="609.0118" y2="231.4725" gradientTransform="matrix(1 0 0 1 0 -284)">
				<stop  offset="0" style="stop-color:#311944"/>
				<stop  offset="1" style="stop-color:#893976"/>
			</linearGradient>
			<path class="st12" d="M1058-160.1l-12.1,29.9l-19.8,48.5l-2,4.9l-11,27.2v0.2l-0.1,0.3L992,2.2l-6.2,15.1L975,43.8l-0.4,1
				l-11.1,27.3l-3.8,9.5l-12.1,29.7l-6.3,15.5l-37.5,92.1l-4.4,10.9c-0.7-0.1-1.4-0.3-2-0.5c-1.5-0.3-3-0.6-4.5-1.1
				c-11.7-3-23.2-6.5-34.4-10.7c-3-1.2-6.1-2.3-9.1-3.6c-5.1-2-10.2-4.1-15.1-6.4c-7.3-3.3-14.5-6.9-21.5-10.6c-3.6-2-7-3.9-10.5-6
				c-9.4-5.4-18.5-11.3-27.2-17.5c-13.2-9.4-25.7-19.6-37.5-30.7c-1-0.9-2-1.8-3-2.8c-0.4-0.4-0.9-0.9-1.3-1.2
				c-1.2-1.2-2.3-2.3-3.4-3.3l-1.2-1.2c-2-2-3.9-4-5.9-6c-0.1-0.2-0.4-0.4-0.6-0.7c-0.2-0.2-0.4-0.4-0.7-0.7c-2.8-2.9-5.5-6-8.1-9
				c-0.2-0.2-0.4-0.4-0.6-0.7c-0.3-0.2-0.5-0.4-0.7-0.7c-0.5-0.5-1-1.1-1.4-1.7c-0.4-0.4-0.9-0.9-1.2-1.3c-0.4-0.4-0.8-0.9-1.2-1.3
				c-1.5-1.7-2.8-3.4-4.2-5.2c-0.3-0.2-0.4-0.5-0.7-0.7c-0.2-0.2-0.4-0.4-0.6-0.7v-0.1c-2.1-2.7-4.2-5.4-6.3-8.1
				c-0.4-0.5-0.7-0.9-1-1.4c-1.1-1.4-2-2.7-3-4.1c-2.3-3.1-4.4-6.3-6.5-9.4c-1.4-2-2.6-3.8-3.8-5.8c-3.3-5.1-6.5-10.2-9.6-15.5
				c-2.3-3.8-4.4-7.8-6.5-11.7c-2.8-5.2-5.5-10.6-8.1-16c-1-2.2-2-4.4-3-6.5c-9.2-20.5-16.4-42-21.6-64.3l28.5-68.4l2.9-7l10-24.2
				l62.6-150.2c3-6.8,11.6-9.9,19.2-6.9l80,31.6l23.1,9.1L997.1-199l46,18.2l6,2.4C1056.9-175.3,1060.9-167.1,1058-160.1z"/>
			
				<linearGradient id="SVGID_9_" gradientUnits="userSpaceOnUse" x1="656.8697" y1="240.4162" x2="1344.493" y2="265.9952" gradientTransform="matrix(1 0 0 1 0 -284)">
				<stop  offset="3.597120e-03" style="stop-color:#0070C5"/>
				<stop  offset="1" style="stop-color:#0070C5"/>
			</linearGradient>
			<path class="st13" d="M1062.8-168.8l-16.3,39.8l-20.3,49.7l-0.7,1.8l-13.2,32.4l-0.1,0.2L994.1-0.7v0.1L994-0.5l-7.1,17.4
				l-10.5,25.8l-0.6,1.4l-12.1,29.7c-0.1,0.1-0.1,0.1,0,0.1l-3.8,9.1l-12,29.3l-6.1,14.8l-37.3,91.2l-4.8,11.7
				c-0.1-0.1-0.2-0.1-0.4-0.1c-0.7-0.1-1.4-0.3-2-0.5c-1.5-0.3-3-0.6-4.5-1.1c-11.7-3-23.2-6.5-34.4-10.7c-3-1.2-6.1-2.3-9.1-3.6
				c-5.1-2-10.2-4.1-15.1-6.4c-7.3-3.3-14.5-6.9-21.5-10.6c-3.6-2-7-3.9-10.5-6c-9.4-5.4-18.5-11.3-27.2-17.5
				c-13.2-9.4-25.7-19.6-37.5-30.7c-1-0.9-2-1.8-3-2.8c-0.4-0.4-0.9-0.9-1.3-1.2c-1.2-1.2-2.3-2.3-3.4-3.3l-1.2-1.2
				c-2-2-3.9-4-5.9-6c-0.1-0.2-0.4-0.4-0.6-0.7c-0.2-0.2-0.4-0.4-0.7-0.7c-2.8-2.9-5.5-6-8.1-9c-0.2-0.2-0.4-0.4-0.6-0.7
				c-0.3-0.2-0.5-0.4-0.7-0.7c-0.5-0.5-1-1.1-1.4-1.7c-0.4-0.4-0.9-0.9-1.2-1.3c-0.4-0.4-0.8-0.9-1.2-1.3c-1.5-1.7-2.8-3.4-4.2-5.2
				c-0.3-0.2-0.4-0.5-0.7-0.7c-0.2-0.2-0.4-0.4-0.6-0.7v-0.1c-2.1-2.7-4.2-5.4-6.3-8.1c-0.4-0.5-0.7-0.9-1-1.4c-1.1-1.4-2-2.7-3-4.1
				c-2.3-3.1-4.4-6.3-6.5-9.4c-1.4-2-2.6-3.8-3.8-5.8c-3.3-5.1-6.5-10.2-9.6-15.5c-2.3-3.8-4.4-7.8-6.5-11.7
				c-2.8-5.2-5.5-10.6-8.1-16c-1-2.2-2-4.4-3-6.5c-9.2-20.5-16.4-42-21.6-64.3c-0.2-0.4-0.2-0.9-0.4-1.4l27.8-67l2.9-6.9l10-24.2
				l66.2-159.6c3-6.9,11.7-10,19.3-7l82,32.4l23.2,9.1l142.1,56.1l44.4,17.6l2.8,1.1C1061.7-184,1065.7-175.8,1062.8-168.8z"/>
			<g class="st14">
				<path class="st15" d="M833.1,118.6l-1.7,3.8L802.2,191c-9.4-5.4-18.5-11.3-27.2-17.5l25.1-58.2l2.9-6.8c1.4-3.2,5.2-4.9,8.5-3.8
					l18.1,6.1C832.9,111.9,834.5,115.4,833.1,118.6z"/>
				<path class="st15" d="M873.8,23.2l-30.4,71.2c-1.4,3.2-5.2,4.9-8.5,3.8l-18-6.2c-3.3-1.1-4.9-4.6-3.5-7.8L844,13.1
					c1.3-3.1,5.1-4.8,8.4-3.7l17.9,6.1C873.6,16.6,875.2,20,873.8,23.2z"/>
				<path class="st15" d="M913.8-70.5L884-0.6c-1.3,3.1-5.1,4.8-8.4,3.7L857.7-3c-3.3-1.1-4.8-4.6-3.5-7.7l30.1-69.9
					c1.3-3.1,5.1-4.7,8.3-3.6l17.8,6C913.6-77,915.1-73.6,913.8-70.5z"/>
				<path class="st15" d="M953.1-162.5l-29.3,68.6c-1.3,3.1-5,4.7-8.3,3.6l-17.7-6c-3.2-1.1-4.8-4.5-3.5-7.6l29.5-68.6
					c1.3-3,5-4.6,8.2-3.5l17.6,6C952.8-168.9,954.4-165.6,953.1-162.5z"/>
			</g>
			<g>
				
					<linearGradient id="SVGID_10_" gradientUnits="userSpaceOnUse" x1="610.5986" y1="336.7965" x2="846.1489" y2="470.3284" gradientTransform="matrix(1 0 0 1 0 -284)">
					<stop  offset="0" style="stop-color:#F57E53"/>
					<stop  offset="4.537139e-03" style="stop-color:#F58152"/>
					<stop  offset="4.200000e-02" style="stop-color:#F99A4D"/>
					<stop  offset="8.400000e-02" style="stop-color:#FCAD49"/>
					<stop  offset="0.1333" style="stop-color:#FEBA46"/>
					<stop  offset="0.1962" style="stop-color:#FFC244"/>
					<stop  offset="0.3183" style="stop-color:#FFC444"/>
					<stop  offset="0.455" style="stop-color:#FDB946"/>
					<stop  offset="0.6941" style="stop-color:#F99C4C"/>
					<stop  offset="0.9964" style="stop-color:#F36F56"/>
				</linearGradient>
				<path class="st16" d="M745.6,123.6l-8.1,19.2c-1-0.9-2-1.8-3-2.8c-0.4-0.4-0.9-0.9-1.3-1.2c-1.2-1.2-2.3-2.3-3.4-3.3l-1.2-1.2
					c-2-2-3.9-4-5.9-6c-0.1-0.2-0.4-0.4-0.6-0.7c-0.2-0.2-0.4-0.4-0.7-0.7c-2.8-2.9-5.5-6-8.1-9c-0.2-0.2-0.4-0.4-0.6-0.7
					c-0.3-0.2-0.5-0.4-0.7-0.7c-0.5-0.5-1-1.1-1.4-1.7c-0.4-0.4-0.9-0.9-1.2-1.3c-0.4-0.4-0.8-0.9-1.2-1.3c-1.5-1.7-2.8-3.4-4.2-5.2
					c-0.3-0.2-0.4-0.5-0.7-0.7c-0.2-0.2-0.4-0.4-0.6-0.7v-0.1c-2.1-2.7-4.2-5.4-6.3-8.1c-0.4-0.5-0.7-0.9-1-1.4
					c-1.1-1.4-2-2.7-3-4.1c2.9-0.9,6.3-0.9,9.4,0.4l36.4,14.9C745,110,748.3,117.3,745.6,123.6z"/>
				
					<linearGradient id="SVGID_11_" gradientUnits="userSpaceOnUse" x1="-4792.7603" y1="-3627.2598" x2="-4759.3447" y2="-3627.2598" gradientTransform="matrix(0.3746 -0.924 0.9606 0.2746 5988.8696 -3299.7515)">
					<stop  offset="0" style="stop-color:#FF9085"/>
					<stop  offset="1" style="stop-color:#FB6FBB"/>
				</linearGradient>
				<path class="st17" d="M734.3,109.5l-31.2-12.9c-2.5-1-5.1-1.2-7.5-0.7c0.3,0.5,0.7,0.9,1,1.4c1.9-0.4,3.9-0.1,5.9,0.7l3.1,1.3
					l0.7,0.3l0.8,0.3l10.2,4.2l0.8,0.3l0.8,0.4l10.2,4.2l0.8,0.3l0.7,0.3l3.1,1.3c5.3,2.2,7.9,8,5.8,12.9l-6.3,14.9
					c0.4,0.4,0.9,0.8,1.3,1.2l6.5-15.5C743.5,118.8,740.5,112,734.3,109.5z"/>
				<g>
					<g>
						<line class="st18" x1="706.3" y1="99.7" x2="703.5" y2="106.2"/>
						<polyline class="st18" points="703.5,106.2 706.3,99.7 706.6,98.9 						"/>
						
							<linearGradient id="SVGID_12_" gradientUnits="userSpaceOnUse" x1="702.932" y1="386.75" x2="707.432" y2="386.75" gradientTransform="matrix(1 0 0 1 0 -284)">
							<stop  offset="0" style="stop-color:#FF9085"/>
							<stop  offset="1" style="stop-color:#FB6FBB"/>
						</linearGradient>
						<path class="st19" d="M707.4,99.2l-0.3,0.7l-3,7c-0.3-0.2-0.4-0.5-0.7-0.7c-0.2-0.2-0.4-0.4-0.6-0.7v-0.1l2.7-6.1l0.3-0.7
							l0.7,0.3L707.4,99.2z"/>
					</g>
					<g>
						<polyline class="st18" points="712.7,117.1 713.3,115.8 713.5,115.1 713.9,114.3 718.1,104.5 						"/>
						<polyline class="st18" points="718.4,103.7 718.1,104.5 713.9,114.3 713.5,115.1 713.3,115.8 712.7,117.1 						"/>
						
							<linearGradient id="SVGID_13_" gradientUnits="userSpaceOnUse" x1="712.09" y1="394.65" x2="719.2076" y2="394.65" gradientTransform="matrix(1 0 0 1 0 -284)">
							<stop  offset="0" style="stop-color:#FF9085"/>
							<stop  offset="1" style="stop-color:#FB6FBB"/>
						</linearGradient>
						<path class="st20" d="M719.2,104.1l-0.3,0.7l-4.2,9.8l-0.3,0.7l-0.4,0.8l-0.7,1.7c-0.2-0.2-0.4-0.4-0.6-0.7
							c-0.3-0.2-0.5-0.4-0.7-0.7l0.4-0.9l0.4-0.8l0.3-0.7l4.2-9.8l0.3-0.7l0.8,0.3L719.2,104.1z"/>
					</g>
					<g>
						<polyline class="st18" points="722.1,127.5 725,120.6 725.4,119.9 725.7,119.1 729.9,109.3 						"/>
						<polyline class="st18" points="730.2,108.6 729.9,109.3 725.7,119.1 725.4,119.9 725,120.6 722.1,127.5 						"/>
						
							<linearGradient id="SVGID_14_" gradientUnits="userSpaceOnUse" x1="721.46" y1="402.3" x2="730.9019" y2="402.3" gradientTransform="matrix(1 0 0 1 0 -284)">
							<stop  offset="0" style="stop-color:#FF9085"/>
							<stop  offset="1" style="stop-color:#FB6FBB"/>
						</linearGradient>
						<path class="st21" d="M730.9,108.9l-0.3,0.7l-4.2,9.9l-0.3,0.7l-0.3,0.8l-3.1,7.2c-0.1-0.2-0.4-0.4-0.6-0.7
							c-0.2-0.2-0.4-0.4-0.7-0.7l2.8-6.5l0.3-0.7l0.3-0.7l4.2-9.8l0.3-0.7l0.8,0.3L730.9,108.9z"/>
					</g>
				</g>
				<g>
					<path class="st22" d="M731.3,129.7l-2.1,5.1l-0.7-0.6c-2-2-3.9-4-5.9-6c-0.1-0.2-0.4-0.4-0.6-0.7c-0.2-0.2-0.4-0.4-0.7-0.7
						c-2.8-2.9-5.5-6-8.1-9c-0.2-0.2-0.4-0.4-0.6-0.7c-0.3-0.2-0.5-0.4-0.7-0.7c-0.5-0.5-1-1.1-1.4-1.7c-0.4-0.4-0.9-0.9-1.2-1.3
						l3.3,1.3l0.7,0.4l0.9,0.3l10.2,4.2l0.8,0.3l0.7,0.3l1.2,0.5C731,122.2,732.8,126.3,731.3,129.7z"/>
					
						<linearGradient id="SVGID_15_" gradientUnits="userSpaceOnUse" x1="-4789.6519" y1="-3621.4744" x2="-4772.9766" y2="-3621.4744" gradientTransform="matrix(0.3746 -0.924 0.9606 0.2746 5988.8696 -3299.7515)">
						<stop  offset="0" style="stop-color:#FF9085"/>
						<stop  offset="1" style="stop-color:#FB6FBB"/>
					</linearGradient>
					<path class="st23" d="M727.5,119.9l-1.2-0.4l-0.7-0.4l-0.8-0.3l-10.2-4.2l-0.8-0.3l-0.8-0.4l-4.7-1.9c0.4,0.4,0.7,0.9,1.2,1.3
						c0.3,0.4,0.7,0.9,1.2,1.3l1.7,0.8l0.8,0.3l0.8,0.4l10.2,4.1l0.7,0.3l0.8,0.4l1.1,0.4c3.3,1.4,4.9,5,3.6,8.1l-2,4.7l1.2,1.2
						l2.3-5.3C733.7,126.2,731.7,121.7,727.5,119.9z"/>
				</g>
			</g>
			
				<linearGradient id="SVGID_16_" gradientUnits="userSpaceOnUse" x1="832.9253" y1="291.5778" x2="1216.1967" y2="305.8351" gradientTransform="matrix(1 0 0 1 0 -284)">
				<stop  offset="0" style="stop-color:#FB6FBB"/>
				<stop  offset="1" style="stop-color:#FF9085"/>
			</linearGradient>
			<path class="st24" d="M1062.8-168.8l-16.3,39.8l-20.3,49.7l-0.7,1.8l-13.2,32.4l-0.1,0.2L994.1-0.7v0.1L994-0.5l-7.1,17.4
				l-10.5,25.8l-0.6,1.4l-12.1,29.7c-0.1,0.1-0.1,0.1,0,0.1l-3.8,9.1l-12,29.3l-6.1,14.8l-37.3,91.2l-4.8,11.7
				c-0.1-0.1-0.2-0.1-0.4-0.1c-0.7-0.1-1.4-0.3-2-0.5c-1.5-0.3-3-0.6-4.5-1.1c-11.7-3-23.2-6.5-34.4-10.7c-3-1.2-6.1-2.3-9.1-3.6
				c-5.1-2-10.2-4.1-15.1-6.4c-7.3-3.3-14.5-6.9-21.5-10.6c4.3-3.8,8.4-8,12.5-12.5c15.5-17.4,24.7-35.4,32.9-60.3
				c2.5-7.6,4.9-15.8,7.4-24.8v-0.1c10.1-36.8,14.9-63.9,17.8-86.1c0.9-6.1,1.6-11.9,2.1-17.3c0-0.1,0-0.1,0-0.2
				c2.1-18.2,3.5-33.4,6.8-49.2c1.2-5.2,2.5-10.5,4.1-16c1-3.3,2.1-6.6,3.3-10c0.2-0.7,0.4-1.3,0.7-2c1.2-3.1,2.4-6.3,3.8-9.5
				c0.4-0.9,0.8-1.8,1.2-2.8c0.7-1.7,1.5-3.4,2.4-5.1c2.8-5.7,5.9-11.6,9.5-17.6c1.2-1.7,2.3-3.6,3.4-5.4c5-7.8,10.9-15.7,17.7-23.8
				c4.2-5.1,8.9-10.2,13.9-15.3c3.9-4,8.1-8,12.4-12c9.4-8.7,20.2-17.4,32.3-26.1c3.1-2.3,6.3-4.6,9.7-6.8l44.4,17.6l2.8,1.1
				C1061.7-184,1065.7-175.8,1062.8-168.8z"/>
			<g class="st25">
				
					<linearGradient id="SVGID_17_" gradientUnits="userSpaceOnUse" x1="834.2001" y1="446.6458" x2="898.9749" y2="446.6458" gradientTransform="matrix(1 0 0 1 0 -284)">
					<stop  offset="0" style="stop-color:#FB6FBB"/>
					<stop  offset="1" style="stop-color:#FF9085"/>
				</linearGradient>
				<path class="st26" d="M898.7,119.8l-39,94.6l-1.3,3.2c-3-1.2-6.1-2.3-9.1-3.6c-5.1-2-10.2-4.1-15.1-6.4l34.9-84.3h0.1l5.5-13.4
					c0.7-1.9,3-2.7,5.1-1.9l16.1,6.6h0.1l0.4,0.2C898.5,115.7,899.5,118,898.7,119.8z"/>
				
					<linearGradient id="SVGID_18_" gradientUnits="userSpaceOnUse" x1="-4667.0542" y1="-3467.0483" x2="-4513.4194" y2="-3467.0483" gradientTransform="matrix(0.3746 -0.924 0.9606 0.2746 5988.8696 -3299.7515)">
					<stop  offset="0" style="stop-color:#FB6FBB"/>
					<stop  offset="1" style="stop-color:#FF9085"/>
				</linearGradient>
				<path class="st27" d="M978.5-72.1L923.6,61c-0.8,1.9-3.1,2.8-5.1,1.9l-16.8-6.8c-2-0.8-3.1-3-2.3-5l55.1-132.9
					c0.8-1.8,3-2.7,5.1-1.9l16.6,6.7C978.3-76.1,979.3-73.9,978.5-72.1z"/>
			</g>
			
				<linearGradient id="SVGID_19_" gradientUnits="userSpaceOnUse" x1="-4004.1846" y1="-4366.2759" x2="-3922.2102" y2="-4366.2759" gradientTransform="matrix(0.2591 -0.9498 0.998 0.1641 6177.2739 -3242.9543)">
				<stop  offset="0" style="stop-color:#FF9085"/>
				<stop  offset="1" style="stop-color:#FB6FBB"/>
			</linearGradient>
			<path class="st28" d="M808.1-232.5c20.2,8.1,29.5,31.5,20.9,52.1c-8.6,20.4-31.7,30.4-51.5,22.4s-29.3-30.9-21-51.4
				C764.7-230.1,787.8-240.5,808.1-232.5z"/>
			<g class="st29">
				<path class="st15" d="M732.5,79.2c1.3,3.2-0.2,6.9-3.5,8.3s-7-0.1-8.3-3.4c-1.3-3.2,0.3-6.9,3.5-8.3
					C727.5,74.5,731.2,76,732.5,79.2z"/>
				<g>
					<path class="st15" d="M763.3,70.2c-0.2,0.6-0.7,1-1.3,1.3c-1.2,0.5-2.6-0.1-3.1-1.3c-7.7-17.8-28.4-26.3-46.7-19.1
						c-1.2,0.5-2.6-0.1-3.1-1.3s0.1-2.5,1.4-3c20.6-8.1,44,1.4,52.7,21.5C763.5,69,763.5,69.6,763.3,70.2z"/>
					<path class="st15" d="M754.6,73.9c-0.2,0.6-0.7,1-1.3,1.3c-1.2,0.5-2.6-0.1-3.1-1.3c-5.6-13.2-21-19.5-34.4-14.1
						c-1.2,0.5-2.6-0.1-3.1-1.3s0.1-2.6,1.4-3.1c15.9-6.3,33.9,1,40.6,16.6C754.8,72.6,754.8,73.3,754.6,73.9z"/>
					<path class="st15" d="M745.8,77.6c-0.2,0.6-0.7,1.1-1.3,1.3c-1.2,0.5-2.6-0.1-3.2-1.3c-3.6-8.5-13.4-12.6-22.1-9
						c-1.3,0.5-2.7-0.1-3.2-1.3c-0.5-1.2,0.1-2.6,1.4-3.1c5.4-2.2,11.3-2.2,16.6,0c5.3,2.2,9.5,6.3,11.7,11.6
						C746,76.3,746,77,745.8,77.6z"/>
				</g>
			</g>
		</g>
		<g>
			
				<linearGradient id="SVGID_20_" gradientUnits="userSpaceOnUse" x1="913.9859" y1="-218.2368" x2="801.9855" y2="768.8832" gradientTransform="matrix(1 0 0 1 0 -284)">
				<stop  offset="0" style="stop-color:#AB316D"/>
				<stop  offset="1" style="stop-color:#792D3D"/>
			</linearGradient>
			<path class="st30" d="M1079.4,226.1c-7.6,2.1-15.2,4-22.9,5.6c-1.2,0.3-2.3,0.5-3.5,0.7c-2.2,0.4-4.4,0.9-6.5,1.2
				c-20.8,3.9-42.4,5.8-64.3,5.8c-20,0-39.7-1.7-58.8-4.9c-8-1.2-15.9-2.8-23.7-4.6c-0.1-0.1-0.2-0.1-0.4-0.1
				c-0.7-0.1-1.4-0.3-2-0.5c-1.5-0.3-3-0.6-4.5-1.1c-11.7-3-23.2-6.5-34.4-10.7c-3-1.2-6.1-2.3-9.1-3.6c-5.1-2-10.2-4.1-15.1-6.4
				c-7.3-3.3-14.5-6.9-21.5-10.6c-3.6-2-7-3.9-10.5-6c-9.4-5.4-18.5-11.3-27.2-17.5c-13.2-9.4-25.7-19.6-37.5-30.7
				c-1-0.9-2-1.8-3-2.8c-0.4-0.4-0.9-0.9-1.3-1.2c-1.2-1.2-2.3-2.3-3.4-3.3l-1.2-1.2c-2-2-3.9-4-5.9-6c-0.1-0.2-0.4-0.4-0.6-0.7
				c-0.2-0.2-0.4-0.4-0.7-0.7c-2.8-2.9-5.5-6-8.1-9c-0.2-0.2-0.4-0.4-0.6-0.7c-0.3-0.2-0.5-0.4-0.7-0.7c-0.5-0.5-1-1.1-1.4-1.7
				c-0.4-0.4-0.9-0.9-1.2-1.3c-0.4-0.4-0.8-0.9-1.2-1.3c-1.5-1.7-2.8-3.4-4.2-5.2c-0.3-0.2-0.4-0.5-0.7-0.7
				c-0.2-0.2-0.4-0.4-0.6-0.7v-0.1c-2.1-2.7-4.2-5.4-6.3-8.1c-0.4-0.5-0.7-0.9-1-1.4c-1.1-1.4-2-2.7-3-4.1c-2.3-3.1-4.4-6.3-6.5-9.4
				c-1.4-2-2.6-3.8-3.8-5.8c-3.3-5.1-6.5-10.2-9.6-15.5c-2.3-3.8-4.4-7.8-6.5-11.7c-2.8-5.2-5.5-10.6-8.1-16c-1-2.2-2-4.4-3-6.5
				c-9.2-20.5-16.4-42-21.6-64.3c-0.2-0.4-0.2-0.9-0.4-1.4c-4.8-21.3-7.7-43.2-8.6-65.7c-0.2-2.3-0.2-4.6-0.2-6.9
				c-0.2-2.3-0.2-4.7-0.2-7c0-5.7,0.2-11.3,0.4-16.9l49.2-1.6l1-0.1l100.7-3.3l27.8-0.9l49.7-1.6l58.7-2h0.1l26.7-0.9l7.4-0.2
				l45-1.4l24.5-0.8h0.3c12.8-0.3,24.2,7.1,30.1,17.7c0.2,0.4,0.4,0.9,0.7,1.3c2,3.8,3.2,8,3.6,12.3l7.7,90.3v0.1l1.1,12.3l3,34.9
				l11.6,134.9v0.1L1079.4,226.1z"/>
			<g class="st14">
				<path class="st5" d="M1053,231.5c-0.2-1.8-1.7-3.2-3.6-3.1c-1.8,0.1-3.2,1.7-3,3.6c0.1,0.6,0.1,1.1,0.1,1.7
					c2.2-0.4,4.4-0.8,6.5-1.2C1053.1,232.1,1053,231.8,1053,231.5z M1049.6,193.8c-0.1-1.8-1.2-3.2-3-3.1s-2.5,1.7-2.4,3.6l1.6,19.1
					l0.5,6c0.2,1.9,1.2,3.2,3,3.1c0.7-0.1,1.3-0.4,1.7-0.9c0.6-0.6,0.8-1.7,0.7-2.8L1049.6,193.8z M1045.8,149.8l-0.5-6
					c-0.2-1.8-1.1-3.2-3-3.1c-1.8,0.1-2.5,1.7-2.4,3.5l0.4,4.4v0.1l1.8,20.6c0.2,1.8,1.1,3.2,2.9,3.1c1.9-0.1,2.6-1.7,2.5-3.5
					L1045.8,149.8z M1041.1,93.8c-0.2-1.8-1.2-3.2-3-3.1c-1.8,0.2-2.5,1.7-2.4,3.5l2.1,25c0.2,1.8,1.2,3.2,3,3.1
					c1.8-0.2,2.5-1.7,2.4-3.6L1041.1,93.8z M1038.8,68.1l-2-24.2c-0.1-1.8-1.1-3.2-2.9-3c-1.8,0.1-2.6,1.6-2.4,3.4l0.6,6.8l0.5,5.7
					c0,0,0,0,0,0.1l1,12.4c0.2,1.8,1.1,3.2,2.9,3.1c0.1,0,0.2,0,0.2-0.1c0.5,0,0.9-0.2,1.2-0.4c0.3-0.2,0.4-0.4,0.6-0.7
					c0.1-0.1,0.1-0.1,0-0.1V71c0.4-0.6,0.4-1.2,0.4-2L1038.8,68.1z M1032.8-2.7L1032.8-2.7l-0.2-3c-0.2-1.8-1.2-3.3-3-3.1
					c-1.8,0.1-2.5,1.6-2.4,3.4l0.4,4.9l1.7,20c0.2,1.8,1.2,3.3,3,3.1c1.8-0.1,2.5-1.6,2.4-3.4L1032.8-2.7z M1028.4-55.4
					c-0.2-1.8-1.2-3.2-3-3.1c-1.8,0.1-2.5,1.6-2.4,3.4l2.1,24.8c0.2,1.8,1.2,3.2,3,3.1s2.5-1.6,2.4-3.4L1028.4-55.4z M1026.1-81.8
					l-0.3-3.2c-0.6-7.3-3-14.4-7.2-20.5c-1.1-1.5-2.9-2-4.4-0.9c-1.5,0.9-1.5,3-0.5,4.5c3.6,5.1,6.3,11,6.8,17.1l0.4,4.8
					c0.2,1.8,1.2,3.3,3,3.2c0.1,0,0.1,0,0.2-0.1c0.6,0,1-0.2,1.4-0.7c0.4-0.4,0.7-1,0.7-1.8c0.1-0.3,0.1-0.6,0.1-0.9L1026.1-81.8z
					 M996.8-121.8c-4.9-1.6-10-2.3-15-2.2l-11.3,0.4c-1.8,0.1-3.2,1.6-3,3.4s1.7,3.2,3.6,3.1l11.3-0.4c4.3-0.2,8.5,0.4,12.6,1.8
					c0.4,0.1,0.8,0.1,1.2,0.1s0.7-0.1,1.1-0.2c0.9-0.4,1.5-1,1.8-2c0.1-0.6,0.1-1.2,0.1-1.7C998.8-120.3,998-121.3,996.8-121.8z
					 M945.2-122.7l-9.3,0.4l-15,0.5l-1.2,0.1c-1.9,0-3.3,1.5-3.1,3.4c0.1,0.7,0.4,1.4,0.9,1.9c0.7,0.8,1.7,1.3,2.8,1.2l12.8-0.4
					l12.6-0.4c1.9-0.1,3.2-1.6,3-3.4C948.6-121.3,947-122.7,945.2-122.7z M894.2-120.8l-6.3,0.2l-6,0.2l-8.9,0.3l-4.7,0.1
					c-1.9,0.1-3.3,1.7-3.1,3.5s1.8,3.3,3.7,3.2l8.1-0.3l17.7-0.7c1.9-0.1,3.3-1.6,3.1-3.4C897.7-119.5,896-120.9,894.2-120.8z
					 M844-118.7c-0.5-0.2-1-0.3-1.6-0.3l-26,0.9c-2,0-3.3,1.6-3.2,3.4c0.2,1.9,1.8,3.3,3.7,3.3l25.5-0.9h0.6
					c1.9-0.1,3.3-1.7,3.1-3.5C846.1-117.1,845.2-118.2,844-118.7z M791.4-117c-0.4-0.2-0.7-0.2-1.2-0.2l-26.4,0.9
					c-0.2,0-0.4,0.1-0.7,0.2c-1.6,0.3-2.8,1.7-2.6,3.3c0,0.4,0.2,0.7,0.3,1c0.5,1.4,1.9,2.3,3.5,2.3l23.6-0.9l2.8-0.1
					c1.9-0.1,3.3-1.7,3.2-3.5C793.8-115.4,792.8-116.6,791.4-117z M737.3-115.3l-26.7,0.9c-2,0.1-3.4,1.6-3.3,3.5
					c0.2,1.9,1.8,3.3,3.8,3.3l26.7-0.9c1.9-0.1,3.3-1.7,3.2-3.5C740.9-113.9,739.3-115.4,737.3-115.3z M683.8-113.4l-18.9,0.7
					l-1,0.1l-7.1,0.2c-2,0.1-3.4,1.7-3.3,3.5c0.2,1.9,1.8,3.4,3.8,3.3l3.7-0.2h1l22.3-0.9c2-0.1,3.5-1.6,3.3-3.5
					C687.5-112.1,685.7-113.5,683.8-113.4z M629.6-111.6l-5.2,0.1c0,2.3,0,4.6,0.2,6.9l5.5-0.2c2-0.1,3.5-1.7,3.3-3.6
					C633.3-110.2,631.5-111.6,629.6-111.6z"/>
			</g>
			
				<linearGradient id="SVGID_21_" gradientUnits="userSpaceOnUse" x1="1539.0616" y1="177.7688" x2="862.5732" y2="433.0473" gradientTransform="matrix(1 0 0 1 0 -284)">
				<stop  offset="0" style="stop-color:#AB316D"/>
				<stop  offset="1" style="stop-color:#792D3D"/>
			</linearGradient>
			<path class="st31" d="M1069.1-13.6c-2.9-1.8-6.3-2-9.3-0.7l-96,41.1c-13.8,6-23.2,19.9-21.9,34.9l3.3,39.9
				c1.3,16,14.2,29.3,30,32.8l99.3,21.8c3.1,0.7,6.5-0.1,8.9-2.2c2.4-2.1,3.8-5.2,3.5-8.4L1074-5.5
				C1073.7-8.8,1072-11.8,1069.1-13.6z"/>
			
				<linearGradient id="SVGID_22_" gradientUnits="userSpaceOnUse" x1="1251.408" y1="265.2834" x2="919.4988" y2="390.532" gradientTransform="matrix(1 0 0 1 0 -284)">
				<stop  offset="0" style="stop-color:#AB316D"/>
				<stop  offset="1" style="stop-color:#792D3D"/>
			</linearGradient>
			<path class="st32" d="M1038.3,74.2c1.8,21.6-14.3,40.1-36.1,41.5c-21.8,1.3-41-15.2-42.8-36.8c-1.8-21.7,14.5-40.2,36.3-41.4
				C1017.3,36.1,1036.4,52.6,1038.3,74.2z"/>
			
				<linearGradient id="SVGID_23_" gradientUnits="userSpaceOnUse" x1="1240.704" y1="264.7732" x2="925.7631" y2="383.6187" gradientTransform="matrix(1 0 0 1 0 -284)">
				<stop  offset="0" style="stop-color:#FFC444"/>
				<stop  offset="0.9964" style="stop-color:#F36F56"/>
			</linearGradient>
			<path class="st33" d="M1038.5,69c1.7,20.5-13.6,38.1-34.2,39.3c-20.7,1.3-38.9-14.4-40.7-34.9c-1.7-20.5,13.7-38.2,34.4-39.3
				C1018.7,33,1036.8,48.6,1038.5,69z"/>
		</g>
	</g>
</g>
<title>Open Wallet GREY-BLUE</title>
<g>
	<g class="st34">
		<path class="st35" d="M1163.8,47.9h69.9c29.3,0,54.3,15.1,74.9,45.2c7.7,15.5,11.5,29.5,11.5,42v5.5c0,27.3-12.3,50.9-37,70.7
			c-16.8,11.6-33.3,17.4-49.5,17.4h-46.9v102c0,10.8-6.7,17.4-20,19.8h-1.4c-11.2,0-18-6.9-20.6-20.8V70.5
			C1146.4,55.5,1152.8,47.9,1163.8,47.9z M1186.8,89.9v96.7h41.4c22.9,0,38.6-11,47.3-32.9c1.7-4.4,2.6-9.8,2.6-16.2
			c0-19.9-10.4-34.7-31.1-44.4c-4.7-2.2-10.4-3.2-17.2-3.2H1186.8z"/>
		<path class="st35" d="M1507.3,327.4c-16.4,15.3-38.1,23-65,23h-5.9c-37.2,0-68.1-18.6-92.9-55.7c-9-18-13.5-36.1-13.5-54.3
			c0-40.7,19.9-72.9,59.8-96.7c17-7.9,33.5-11.9,49.7-11.9c41.3,0,74,20.2,98.1,60.6c7.4,16.6,11.1,33.6,11.1,51.1v87.4
			c0,10.8-6.6,17.3-19.8,19.6h-1.4c-9.2,0-16-5.4-20.4-16.2v-2.2L1507.3,327.4z M1371.6,239.6v2.2c0,27.6,13.9,48.3,41.6,62.2
			c8.6,3.2,16.4,4.8,23.2,4.8h5.9c22.9,0,41.8-11.5,56.7-34.5c5.4-10.8,8.1-21.1,8.1-30.9v-3c0-26.5-13.1-46.9-39.4-61
			c-9-4-18.4-6.1-28.3-6.1h-0.8c-27.9,0-48.9,14.5-63,43.6C1373,225.8,1371.6,233.4,1371.6,239.6z"/>
		<path class="st35" d="M1664.7,267c33.5-81.7,51.6-124.1,54.3-127.2c4.7-3.9,9.6-5.9,14.7-5.9c12.9,2.4,19.4,8.9,19.4,19.4v1.2
			c-0.5,4.2-23.9,61.3-70.1,171.5c-21.9,54.5-34.6,83.9-38,88.3c-3.4,2.6-7.7,4.6-13.1,6.1c-13.6-3-20.4-9.1-20.4-18.4v-3.4
			c0-2.6,10.4-29,31.3-79.4l-66.6-162.6v-2.4c2.6-12.9,9.3-19.4,20.2-19.4c10.9,0,19.6,10.6,26.1,31.9
			C1644.3,218.1,1658.3,251.6,1664.7,267z"/>
	</g>
	<g>
		<g>
			<circle cx="169.6" cy="222.8" r="161.4"/>
		</g>
		<polygon points="269.8,213 269.7,213.4 269.7,213 		"/>
		<g>
			<g>
				<path d="M321.5,222.8c0,69.6-46.8,128.3-110.6,146.2c-3.2,0.9-6.4,1.7-9.7,2.4c-0.5,0.1-1,0.2-1.5,0.3c-0.9,0.2-1.9,0.4-2.8,0.5
					c-8.9,1.6-18,2.5-27.3,2.5c-8.5,0-16.8-0.7-24.9-2.1c-3.4-0.5-6.8-1.2-10.1-2c-0.1,0-0.1,0-0.1-0.1c-0.3-0.1-0.6-0.1-0.9-0.2
					c-0.6-0.1-1.3-0.3-1.9-0.5c-5-1.3-9.8-2.8-14.6-4.5c-1.3-0.5-2.6-1-3.8-1.5c-2.2-0.8-4.3-1.8-6.4-2.7c-3.1-1.4-6.1-2.9-9.1-4.5
					c-1.5-0.8-3-1.7-4.5-2.6c-4-2.3-7.8-4.8-11.6-7.4c-5.6-4-10.9-8.3-15.9-13c-0.4-0.4-0.9-0.8-1.3-1.2c-0.2-0.2-0.4-0.4-0.5-0.5
					c-0.5-0.5-1-1-1.5-1.4L62,330c-0.8-0.8-1.7-1.7-2.5-2.6c-0.1-0.1-0.2-0.2-0.3-0.3c-0.1-0.1-0.2-0.2-0.3-0.3
					c-1.2-1.2-2.3-2.5-3.5-3.8c-0.1-0.1-0.2-0.2-0.3-0.3c-0.1-0.1-0.2-0.2-0.3-0.3c-0.2-0.2-0.4-0.5-0.6-0.7
					c-0.2-0.2-0.4-0.4-0.5-0.5c-0.2-0.2-0.3-0.4-0.5-0.5c-0.6-0.7-1.2-1.5-1.8-2.2c-0.1-0.1-0.2-0.2-0.3-0.3
					c-0.1-0.1-0.2-0.2-0.3-0.3l0,0c-0.9-1.1-1.8-2.3-2.7-3.4c-0.2-0.2-0.3-0.4-0.4-0.6c-0.5-0.6-0.9-1.1-1.3-1.7
					c-1-1.3-1.9-2.6-2.8-4c-0.6-0.8-1.1-1.6-1.6-2.5c-1.4-2.2-2.8-4.4-4.1-6.6c-1-1.6-1.9-3.3-2.7-5c-1.2-2.2-2.3-4.5-3.4-6.8
					c-0.4-0.9-0.9-1.9-1.3-2.8c-3.9-8.7-7-17.8-9.1-27.3c-0.1-0.2-0.1-0.4-0.1-0.6c-2-9-3.3-18.3-3.6-27.9c-0.1-1-0.1-1.9-0.1-2.9
					c-0.1-1-0.1-2-0.1-3c0-2.4,0.1-4.8,0.1-7.1C21.3,135.2,87.8,71,169.3,71C253.5,70.9,321.5,138.9,321.5,222.8z"/>
			</g>
			<g>
				<g>
					
						<linearGradient id="SVGID_24_" gradientUnits="userSpaceOnUse" x1="102.4065" y1="321.8674" x2="242.8543" y2="788.309" gradientTransform="matrix(1 0 0 1 0 -284)">
						<stop  offset="0" style="stop-color:#A8D29F"/>
						<stop  offset="0.9964" style="stop-color:#A8D29F"/>
					</linearGradient>
					<path class="st36" d="M290.8,178.1c-1.5,0.7-3,1.4-4.5,2.2c-0.7,0.3-1.4,0.7-2,1c-0.7,0.4-1.4,0.7-2,1.1
						c-1.4,0.7-2.7,1.5-4.1,2.3c-1.1,0.6-2.2,1.3-3.3,2c-1,0.6-1.9,1.2-2.8,1.9c-0.9,0.6-1.9,1.2-2.7,1.9c-1.8,1.3-3.6,2.6-5.3,3.9
						c-25.2,20-41,47.9-55.4,76.9c-1.8,3.5-3.5,7.1-5.2,10.6c-3.2,6.7-6.5,13.4-9.8,20c-0.1,0.1-0.1,0.2-0.1,0.3
						c-0.1,0.2-0.2,0.4-0.3,0.6c-0.1,0.3-0.3,0.5-0.4,0.8c-2.2,4.5-4.5,8.9-6.8,13.2c-0.6,1.3-1.3,2.5-2,3.8
						c-2.2,4-4.4,7.8-6.7,11.6c-1.4,2.3-2.8,4.5-4.2,6.7c-8.1,12.4-17.2,23.8-28.3,33.6c-3.4-0.5-6.8-1.2-10.1-2
						c-0.1,0-0.1,0-0.1-0.1c-0.3-0.1-0.6-0.1-0.9-0.2c-0.6-0.1-1.3-0.3-1.9-0.5c-5-1.3-9.8-2.8-14.6-4.5c-1.3-0.5-2.6-1-3.8-1.5
						c-2.2-0.8-4.3-1.8-6.4-2.7c-3.1-1.4-6.1-2.9-9.1-4.5c-1.5-0.8-3-1.7-4.5-2.6c-4-2.3-7.8-4.8-11.6-7.4c-5.6-4-10.9-8.3-15.9-13
						c-0.4-0.4-0.9-0.8-1.3-1.2c-0.2-0.2-0.4-0.4-0.5-0.5c-0.5-0.5-1-1-1.5-1.4L62,330c-0.8-0.8-1.7-1.7-2.5-2.6
						c-0.1-0.1-0.2-0.2-0.3-0.3c-0.1-0.1-0.2-0.2-0.3-0.3c-1.2-1.2-2.3-2.5-3.5-3.8c-0.1-0.1-0.2-0.2-0.3-0.3
						c-0.1-0.1-0.2-0.2-0.3-0.3c-0.2-0.2-0.4-0.5-0.6-0.7c-0.2-0.2-0.4-0.4-0.5-0.5c-0.2-0.2-0.3-0.4-0.5-0.5
						c-0.6-0.7-1.2-1.5-1.8-2.2c-0.1-0.1-0.2-0.2-0.3-0.3c-0.1-0.1-0.2-0.2-0.3-0.3l0,0c-0.9-1.1-1.8-2.3-2.7-3.4
						c-0.2-0.2-0.3-0.4-0.4-0.6c-0.5-0.6-0.9-1.1-1.3-1.7c-1-1.3-1.9-2.6-2.8-4c-0.6-0.8-1.1-1.6-1.6-2.5c-1.4-2.2-2.8-4.4-4.1-6.6
						c-1-1.6-1.9-3.3-2.7-5c-1.2-2.2-2.3-4.5-3.4-6.8c-0.4-0.9-0.9-1.9-1.3-2.8c19.4-16,33-36.7,44.9-58.9c0.3-0.6,0.7-1.2,1-1.9
						c1.8-3.4,3.6-6.8,5.3-10.2c1.1-2.3,2.3-4.5,3.4-6.8c4.9-9.9,9.7-20,14.6-29.9c2.6-5.1,5.2-10.2,7.9-15.2c0.7-1.2,1.4-2.5,2-3.7
						c11.6-20.7,25.1-39.9,43.8-54.8l0,0c4.6-3.7,9.6-7.1,15-10.2c0.5-0.3,1.1-0.6,1.6-0.9s1.1-0.6,1.6-0.9c0.8-0.4,1.6-0.9,2.4-1.3
						c2-1.1,4.1-2.1,6.3-3.1c7.8,6.5,15.7,13,23.5,19.5c20.9,17.3,41.7,34.6,62.6,51.9c7.9,6.5,15.8,13.1,23.7,19.6
						C290.5,177.9,290.6,178,290.8,178.1z"/>
					<path class="st5" d="M272.2,176.6c-0.8,0.5-1.7,1-2.5,1.4l0,0c-5.5,3.3-10.7,6.9-15.4,10.8c-23.6,19.3-38.8,45.6-52.6,73.1l0,0
						c-1.1,2.3-2.3,4.6-3.4,6.9c-3.6,7.4-7.2,14.9-10.9,22.3c-0.2,0.5-0.4,0.9-0.7,1.4c-4.3,8.8-8.8,17.4-13.6,25.9
						c-0.5,1-1.1,1.9-1.7,2.9c-1.7,2.9-3.4,5.8-5.3,8.7c-0.7,1.1-1.4,2.1-2.1,3.2l0,0c-7.9,11.9-16.8,23-27.5,32.5
						c-0.1,0.1-0.2,0.2-0.3,0.3c-1.3,1.2-2.6,2.3-4,3.4c-0.2,0.2-0.4,0.3-0.6,0.5c-5-1.3-9.8-2.8-14.6-4.5c-1.3-0.5-2.6-1-3.8-1.5
						c-2.2-0.8-4.3-1.8-6.4-2.7c-3.1-1.4-6.1-2.9-9.1-4.5c-1.5-0.8-3-1.7-4.5-2.6c-4-2.3-7.8-4.8-11.6-7.4c-5.6-4-10.9-8.3-15.9-13
						c-0.4-0.4-0.9-0.8-1.3-1.2c-0.2-0.2-0.4-0.4-0.5-0.5c-0.5-0.5-1-1-1.5-1.4L62,330c-0.8-0.8-1.7-1.7-2.5-2.6
						c-0.1-0.1-0.2-0.2-0.3-0.3c-0.1-0.1-0.2-0.2-0.3-0.3c-1.2-1.2-2.3-2.5-3.5-3.8c-0.1-0.1-0.2-0.2-0.3-0.3
						c-0.1-0.1-0.2-0.2-0.3-0.3c-0.2-0.2-0.4-0.5-0.6-0.7c-0.2-0.2-0.4-0.4-0.5-0.5c-0.2-0.2-0.3-0.4-0.5-0.5
						c-0.6-0.7-1.2-1.5-1.8-2.2c-0.1-0.1-0.2-0.2-0.3-0.3c-0.1-0.1-0.2-0.2-0.3-0.3l0,0c-0.9-1.1-1.8-2.3-2.7-3.4
						c-0.2-0.2-0.3-0.4-0.4-0.6c-0.5-0.6-0.9-1.1-1.3-1.7c-1-1.3-1.9-2.6-2.8-4c-0.6-0.8-1.1-1.6-1.6-2.5c-1.4-2.2-2.8-4.4-4.1-6.6
						c-1-1.6-1.9-3.3-2.7-5c1-0.8,2-1.5,3-2.4c21.5-17.5,35.9-40.8,48.7-65.5c0.5-0.9,1-1.9,1.4-2.8c1.7-3.4,3.4-6.8,5.1-10.2
						c1.4-2.9,2.8-5.9,4.3-8.8c2.6-5.4,5.2-10.8,7.9-16.1c3.8-7.7,7.7-15.3,11.8-22.7c0.7-1.2,1.4-2.4,2.1-3.7
						c10.9-19.1,23.6-36.8,40.8-50.8c5.5-4.5,11.4-8.6,17.9-12.2c5.5,4.5,10.9,9.1,16.4,13.6c20.1,16.6,40.3,33.4,60.4,50
						C260.9,167.2,266.5,171.9,272.2,176.6z"/>
					<g>
						<g>
							
								<linearGradient id="SVGID_25_" gradientUnits="userSpaceOnUse" x1="32.06" y1="581.65" x2="44.363" y2="581.65" gradientTransform="matrix(1 0 0 1 0 -284)">
								<stop  offset="0" style="stop-color:#A8D29F"/>
								<stop  offset="0.9964" style="stop-color:#A8D29F"/>
							</linearGradient>
							<path class="st37" d="M44.3,306c-0.1,0.7-0.2,1.4-0.4,2.1c-0.6-0.8-1.1-1.6-1.6-2.5c-1.4-2.2-2.8-4.4-4.1-6.6
								c-1-1.6-1.9-3.3-2.7-5c-1.2-2.2-2.3-4.5-3.4-6.8c1.8,0.9,3.6,2,5.2,3.3c0.4,0.3,0.8,0.7,1.1,1c0,0.1,0.1,0.1,0.1,0.1
								c2.9,2.7,4.7,6,5.5,9.3C44.3,302.6,44.5,304.3,44.3,306z"/>
							
								<linearGradient id="SVGID_26_" gradientUnits="userSpaceOnUse" x1="113.24" y1="651.0293" x2="133.61" y2="651.0293" gradientTransform="matrix(1 0 0 1 0 -284)">
								<stop  offset="0" style="stop-color:#A8D29F"/>
								<stop  offset="0.9964" style="stop-color:#A8D29F"/>
							</linearGradient>
							<path class="st38" d="M133.6,370.3c-0.6-0.1-1.3-0.3-1.9-0.5c-5-1.3-9.8-2.8-14.6-4.5c-1.3-0.5-2.6-1-3.8-1.5
								c1.5-0.1,3,0,4.4,0.1c5.4,0.5,10.4,2.2,14.6,5.3c0.1,0,0.1,0.1,0.1,0.1c0.3,0.2,0.6,0.5,0.9,0.7
								C133.4,370.1,133.5,370.2,133.6,370.3z"/>
						</g>
						<g>
							
								<linearGradient id="SVGID_27_" gradientUnits="userSpaceOnUse" x1="153.6" y1="385.4827" x2="204" y2="385.4827" gradientTransform="matrix(1 0 0 1 0 -284)">
								<stop  offset="0" style="stop-color:#A8D29F"/>
								<stop  offset="0.9964" style="stop-color:#A8D29F"/>
							</linearGradient>
							<path class="st39" d="M180.5,86.8c7.9,6.5,15.7,13,23.5,19.5c-1.9,1.8-4.2,3.5-7,5c-0.7,0.4-1.5,0.8-2.3,1.1
								c-11.3,5.2-25.1,5.3-34.5-1.5c-0.4-0.3-0.8-0.6-1.2-0.9c-2.5-2.1-4.5-4.6-5.4-6.9C161.6,96.9,170.5,91.3,180.5,86.8z"/>
							
								<linearGradient id="SVGID_28_" gradientUnits="userSpaceOnUse" x1="247.8966" y1="460.3" x2="290.8" y2="460.3" gradientTransform="matrix(1 0 0 1 0 -284)">
								<stop  offset="0" style="stop-color:#A8D29F"/>
								<stop  offset="0.9964" style="stop-color:#A8D29F"/>
							</linearGradient>
							<path class="st40" d="M266.7,158.2c8,6.6,16.1,13.3,24.1,19.9c-10,4.5-18.9,10-26.8,16.3c-3.5-1.2-6.3-2.6-8.9-4.8
								c-0.3-0.2-0.6-0.5-0.9-0.8l-0.1-0.1c-4.2-3.9-6.3-8.7-6.2-13.5s2.4-9.4,7.3-12.8c0.6-0.4,1.3-0.9,2.1-1.3
								C260.1,159.7,263.3,158.7,266.7,158.2z"/>
						</g>
					</g>
					
						<linearGradient id="SVGID_29_" gradientUnits="userSpaceOnUse" x1="-2739.7168" y1="-3547.0681" x2="-2716.7473" y2="-3470.7842" gradientTransform="matrix(0.6379 -0.7701 0.7701 0.6379 4588.772 377.4226)">
						<stop  offset="0" style="stop-color:#A8D29F"/>
						<stop  offset="0.9964" style="stop-color:#A8D29F"/>
					</linearGradient>
					<path class="st41" d="M165.6,202.2c17.6,14.6,22.8,43,12.6,64.4c-10.1,21.4-33.6,26.1-51.3,11.4c-17.6-14.6-22.8-43-12.7-64.4
						C124.4,192.2,147.8,187.5,165.6,202.2z"/>
					<g>
						<path class="st5" d="M168.2,256.5c-1-0.8-2-1.7-3-2.5c1.4-3.4,2.2-6.7,2.3-9.7l0,0c0-0.2,0-0.3,0-0.5l0,0c0-1.1,0-2.1-0.2-3.1
							c0-0.1,0-0.1,0-0.3c-0.6-4.1-2.5-7.5-5.6-10.1c-2.9-2.4-5.9-3.2-9-2.5c-2.3,0.6-4.8,1.9-7.4,4.4c-0.8,0.7-1.6,1.6-2.5,2.6
							l-0.1,0.1l-0.1-0.1c-1.5-1.2-3-2.5-4.5-3.7c-1.1-0.9-2.2-1.8-3.2-2.7c0.1-0.2,0.2-0.4,0.3-0.6c1-1.7,2.2-3.3,3.4-4.6
							c0.7-0.8,1.5-1.5,2.3-2.1c0.9-0.7,0.9-2.3,0-3.1c-0.9-0.9-1.8-1.8-2.7-2.7c-0.2-0.2-0.4-0.4-0.6-0.6c-0.7-0.7-1.6-0.7-2.3-0.1
							c-1.1,1.1-2.1,2.3-3.1,3.4c-1,1.2-1.9,2.4-2.7,3.7c-0.3,0.5-0.6,0.9-1,1.4c-0.5-0.4-1.1-0.9-1.6-1.3c-0.4-0.3-0.8-0.6-1.1-1
							c-0.8-0.6-1.8-0.6-2.4,0.3c-0.2,0.3-0.3,0.5-0.3,0.7c-0.1,0.7,0.2,1.5,0.8,2c0.3,0.3,0.6,0.5,0.9,0.8c0.7,0.5,1.3,1,1.9,1.5
							c-2.2,4.6-3.2,8.9-2.7,12.8c0.2,1.9,0.7,3.6,1.5,5.2c0.9,1.7,2.2,3.2,3.8,4.5c0.7,0.6,1.4,1.1,2,1.4c1.8,1.1,3.6,1.5,5.5,1.4
							c0.6,0,1.1-0.1,1.6-0.2c3.1-0.7,6.2-3.1,9.5-7c1.8,1.5,3.6,3,5.4,4.5c1.1,0.9,2.2,1.8,3.3,2.7c-1.1,2-2.4,3.8-3.9,5.5
							c-0.9,1-1.9,2-3,3c-0.9,0.8-0.9,2.4,0,3.3c1.4,1.4,2.8,2.7,4.2,4.1c0.7,0.7,1.7,0.6,2.3,0c0.9-1,1.7-2,2.5-3l0,0
							c0.2-0.2,0.3-0.4,0.5-0.6c1.3-1.8,2.5-3.8,3.7-5.9c0.1-0.3,0.3-0.5,0.4-0.7l0,0c0,0,0-0.1,0.1-0.1c1,0.8,2,1.6,3,2.5
							c0.8,0.7,1.9,0.6,2.3-0.4l0,0C169.2,258.3,169,257.1,168.2,256.5z M134.6,239.3c-0.1-0.1-0.2-0.1-0.3-0.3
							c-0.4-0.3-0.8-0.7-1-1.2c-0.4-0.6-0.6-1.3-0.7-2c-0.2-1.2,0.1-2.7,0.6-4.1c0-0.1,0-0.1,0.1-0.2c0.2,0.2,0.4,0.3,0.6,0.5h0.1
							c0.9,0.8,1.8,1.5,2.7,2.3c1.3,1.1,2.6,2.1,3.8,3.2c-0.8,1-1.6,1.5-2.3,1.9l0,0c-0.3,0.1-0.6,0.3-0.9,0.3
							C136.3,240.1,135.5,239.9,134.6,239.3z M158.4,248.3c-1.1-1-2.3-1.9-3.4-2.9c-1.5-1.3-3-2.5-4.5-3.8c1.3-1.3,2.5-2.2,3.6-2.4
							s2.1,0.1,3.1,0.9c0,0,0,0,0.1,0.1c1.2,1,1.9,2.2,2.1,3.5C159.4,245.2,159.2,246.7,158.4,248.3z"/>
					</g>
					
						<linearGradient id="SVGID_30_" gradientUnits="userSpaceOnUse" x1="42.32" y1="558.0371" x2="290.77" y2="558.0371" gradientTransform="matrix(1 0 0 1 0 -284)">
						<stop  offset="0" style="stop-color:#AA80F9"/>
						<stop  offset="0.9964" style="stop-color:#6165D7"/>
					</linearGradient>
					<path class="st42" d="M290.8,178.1c-1.5,0.7-3,1.4-4.5,2.2c-0.7,0.3-1.4,0.7-2,1c-0.7,0.4-1.4,0.7-2,1.1
						c-1.4,0.7-2.7,1.5-4.1,2.3c-1.1,0.6-2.2,1.3-3.3,2c-1,0.6-1.9,1.2-2.8,1.9c-0.9,0.6-1.9,1.2-2.7,1.9c-1.8,1.3-3.6,2.6-5.3,3.9
						c-25.2,20-41,47.9-55.4,76.9c-1.8,3.5-3.5,7.1-5.2,10.6c-3.2,6.7-6.5,13.4-9.8,20c-0.1,0.1-0.1,0.2-0.1,0.3
						c-0.1,0.2-0.2,0.4-0.3,0.6c-0.1,0.3-0.3,0.5-0.4,0.8c-2.2,4.5-4.5,8.9-6.8,13.2c-0.6,1.3-1.3,2.5-2,3.8
						c-2.2,4-4.4,7.8-6.7,11.6c-1.4,2.3-2.8,4.5-4.2,6.7c-8.1,12.4-17.2,23.8-28.3,33.6c-3.4-0.5-6.8-1.2-10.1-2
						c-0.1,0-0.1,0-0.1-0.1c-0.3-0.1-0.6-0.1-0.9-0.2c-0.6-0.1-1.3-0.3-1.9-0.5c-5-1.3-9.8-2.8-14.6-4.5c-1.3-0.5-2.6-1-3.8-1.5
						c-2.2-0.8-4.3-1.8-6.4-2.7c-3.1-1.4-6.1-2.9-9.1-4.5c-1.5-0.8-3-1.7-4.5-2.6c-4-2.3-7.8-4.8-11.6-7.4c-5.6-4-10.9-8.3-15.9-13
						c-0.4-0.4-0.9-0.8-1.3-1.2c-0.2-0.2-0.4-0.4-0.5-0.5c-0.5-0.5-1-1-1.5-1.4L62,330c-0.8-0.8-1.7-1.7-2.5-2.6
						c-0.1-0.1-0.2-0.2-0.3-0.3c-0.1-0.1-0.2-0.2-0.3-0.3c-1.2-1.2-2.3-2.5-3.5-3.8c-0.1-0.1-0.2-0.2-0.3-0.3
						c-0.1-0.1-0.2-0.2-0.3-0.3c-0.2-0.2-0.4-0.5-0.6-0.7c-0.2-0.2-0.4-0.4-0.5-0.5c-0.2-0.2-0.3-0.4-0.5-0.5
						c-0.6-0.7-1.2-1.5-1.8-2.2c-0.1-0.1-0.2-0.2-0.3-0.3c-0.1-0.1-0.2-0.2-0.3-0.3l0,0c-0.9-1.1-1.8-2.3-2.7-3.4
						c-0.2-0.2-0.3-0.4-0.4-0.6c-0.5-0.6-0.9-1.1-1.3-1.7c-1-1.3-1.9-2.6-2.8-4c-0.6-0.8-1.1-1.6-1.6-2.5c0.7,0.1,1.3,0.3,2,0.4
						c4.9,1,10,2.3,15.3,4c0.5,0.1,0.9,0.3,1.4,0.5h0.1c4.4,1.4,8.9,3.1,13.7,5.1c6.3,2.7,12.1,4.8,17.4,6.4c4.8,1.4,9.2,2.4,13.3,3
						c4.1,0.6,7.9,0.9,11.3,0.7c1.6,0,3.2-0.1,4.7-0.4l0,0c4.3-0.6,8-1.9,11.3-3.7l0,0c0.9-0.5,1.8-1,2.6-1.6
						c7.9-5.3,13.1-14.1,17.1-25c0.4-1.1,0.8-2.2,1.2-3.3l0,0c0.6-1.9,1.2-3.9,1.8-5.9c2.6-8.9,4.9-18.6,7.7-28.5l0,0
						c1.2-4.3,2.6-8.7,4.1-13l0,0c0,0,0,0,0-0.1c2.4-6.9,5.2-13.7,8.4-20.2c0.3-0.5,0.5-1,0.8-1.5c0.5-1,1.1-2,1.6-3l0,0
						c1.7-3.2,3.5-6.2,5.5-9.1c3.4-5.1,7.3-9.8,11.6-13.9c1.1-1.1,2.3-2.1,3.4-3.1c13.4-11.6,30.1-18.4,49-17.9
						c5.6,0.1,11.3,0.7,17.1,2c1.5,0.3,3,0.6,4.7,0.7l0,0c6,0.6,12.9,0.4,20.7-0.2C290.5,177.9,290.6,178,290.8,178.1z"/>
				</g>
			</g>
			<g>
				<path class="st35" d="M210.9,370c-3.2,0.9-6.4,1.7-9.7,2.4c-0.5,0.1-1,0.2-1.5,0.3c-0.9,0.2-1.9,0.4-2.8,0.5
					c-8.9,1.6-18,2.5-27.3,2.5c-8.5,0-16.8-0.7-24.9-2.1c-3.4-0.5-6.8-1.2-10.1-2c-0.1,0-0.1,0-0.1-0.1c-0.3-0.1-0.6-0.1-0.9-0.2
					c-0.6-0.1-1.3-0.3-1.9-0.5c-5-1.3-9.8-2.8-14.6-4.5c-1.3-0.5-2.6-1-3.8-1.5c-2.2-0.8-4.3-1.8-6.4-2.7c-3.1-1.4-6.1-2.9-9.1-4.5
					c-1.5-0.8-3-1.7-4.5-2.6c-4-2.3-7.8-4.8-11.6-7.4c-5.6-4-10.9-8.3-15.9-13c-0.4-0.4-0.9-0.8-1.3-1.2c-0.2-0.2-0.4-0.4-0.5-0.5
					c-0.5-0.5-1-1-1.5-1.4L62,331c-0.8-0.8-1.7-1.7-2.5-2.6c-0.1-0.1-0.2-0.2-0.3-0.3c-0.1-0.1-0.2-0.2-0.3-0.3
					c-1.2-1.2-2.3-2.5-3.5-3.8c-0.1-0.1-0.2-0.2-0.3-0.3c-0.1-0.1-0.2-0.2-0.3-0.3c-0.2-0.2-0.4-0.5-0.6-0.7
					c-0.2-0.2-0.4-0.4-0.5-0.5c-0.2-0.2-0.3-0.4-0.5-0.5c-0.6-0.7-1.2-1.5-1.8-2.2c-0.1-0.1-0.2-0.2-0.3-0.3
					c-0.1-0.1-0.2-0.2-0.3-0.3l0,0c-0.9-1.1-1.8-2.3-2.7-3.4c-0.2-0.2-0.3-0.4-0.4-0.6c-0.5-0.6-0.9-1.1-1.3-1.7
					c-1-1.3-1.9-2.6-2.8-4c-0.6-0.8-1.1-1.6-1.6-2.5c-1.4-2.2-2.8-4.4-4.1-6.6c-1-1.6-1.9-3.3-2.7-5c-1.2-2.2-2.3-4.5-3.4-6.8
					c-0.4-0.9-0.9-1.9-1.3-2.8c-3.9-8.7-7-17.8-9.1-27.3c-0.1-0.2-0.1-0.4-0.1-0.6c-2-9-3.3-18.3-3.6-27.9c-0.1-1-0.1-1.9-0.1-2.9
					c-0.1-1-0.1-2-0.1-3c0-2.4,0.1-4.8,0.1-7.1l20.9-0.7h0.4l42.8-1.4l11.8-0.4l21.1-0.7l24.9-0.8l0,0l11.3-0.4l3.1-0.1l19.1-0.6
					l10.4-0.3h0.1c5.4-0.1,10.3,3,12.8,7.5c0.1,0.2,0.2,0.4,0.3,0.6c0.8,1.6,1.4,3.4,1.5,5.2l3.3,38.3l0,0l0.5,5.2l1.3,14.8
					l4.9,57.2l0,0L210.9,370z"/>
				<g class="st14">
					<path class="st5" d="M199.7,372.3c-0.1-0.8-0.7-1.4-1.5-1.3s-1.4,0.7-1.3,1.5c0,0.3,0,0.5,0,0.7c0.9-0.1,1.9-0.3,2.8-0.5
						C199.7,372.5,199.7,372.4,199.7,372.3z M198.2,356.3c-0.1-0.8-0.5-1.4-1.3-1.3s-1.1,0.7-1,1.5l0.7,8.1l0.2,2.5
						c0.1,0.8,0.5,1.4,1.3,1.3c0.3,0,0.6-0.1,0.7-0.4c0.3-0.3,0.3-0.7,0.3-1.2L198.2,356.3z M196.6,337.6l-0.2-2.6
						c-0.1-0.8-0.5-1.4-1.3-1.3s-1.1,0.7-1,1.5l0.1,1.9l0,0l0.8,8.8c0.1,0.8,0.5,1.4,1.2,1.3c0.8,0,1.1-0.7,1.1-1.5L196.6,337.6z
						 M194.6,313.9c-0.1-0.8-0.5-1.4-1.3-1.3s-1.1,0.7-1,1.5l0.9,10.6c0.1,0.8,0.5,1.4,1.3,1.3s1.1-0.7,1-1.5L194.6,313.9z
						 M193.6,302.9l-0.9-10.3c-0.1-0.8-0.5-1.4-1.2-1.3c-0.8,0-1.1,0.7-1,1.5l0.3,2.9l0.2,2.4l0,0l0.4,5.3c0.1,0.8,0.5,1.4,1.2,1.3
						h0.1c0.2,0,0.4-0.1,0.5-0.2s0.2-0.2,0.3-0.3c0,0,0,0,0-0.1l0,0c0.1-0.3,0.2-0.5,0.1-0.9L193.6,302.9z M191.1,272.9L191.1,272.9
						l-0.1-1.3c-0.1-0.8-0.5-1.4-1.3-1.3c-0.8,0-1.1,0.7-1,1.5l0.2,2.1l0.7,8.5c0.1,0.8,0.5,1.4,1.3,1.3c0.8,0,1.1-0.7,1-1.5
						L191.1,272.9z M189.2,250.5c-0.1-0.8-0.5-1.4-1.3-1.3c-0.8,0-1.1,0.7-1,1.4l0.9,10.5c0.1,0.8,0.5,1.4,1.3,1.3
						c0.8,0,1.1-0.7,1-1.5L189.2,250.5z M188.3,239.3l-0.1-1.4c-0.3-3.1-1.3-6.1-3.1-8.7c-0.5-0.6-1.2-0.8-1.9-0.4
						c-0.6,0.4-0.6,1.3-0.2,1.9c1.5,2.2,2.6,4.7,2.9,7.3l0.1,2c0.1,0.8,0.5,1.4,1.3,1.4h0.1c0.3,0,0.4-0.1,0.6-0.3
						c0.2-0.1,0.3-0.4,0.3-0.8c0-0.1,0-0.3,0-0.4L188.3,239.3z M175.8,222.3c-2.1-0.7-4.2-1-6.4-0.9l-4.8,0.2
						c-0.8,0-1.4,0.7-1.3,1.4c0.1,0.8,0.7,1.4,1.5,1.3l4.8-0.1c1.8-0.1,3.6,0.2,5.3,0.8c0.1,0.1,0.3,0.1,0.5,0.1
						c0.1,0,0.3,0,0.5-0.1c0.4-0.1,0.6-0.4,0.8-0.8c0.1-0.3,0.1-0.5,0-0.7C176.7,223,176.3,222.5,175.8,222.3z M153.9,222l-3.9,0.1
						l-6.4,0.2h-0.5c-0.8,0-1.4,0.6-1.3,1.4c0,0.3,0.2,0.6,0.4,0.8c0.3,0.3,0.7,0.6,1.2,0.5l5.4-0.2l5.4-0.2c0.8,0,1.4-0.7,1.3-1.4
						C155.4,222.6,154.7,221.9,153.9,222z M132.3,222.7l-2.6,0.1l-2.5,0.1l-3.8,0.1l-2,0.1c-0.8,0-1.4,0.7-1.3,1.5s0.8,1.4,1.6,1.4
						l3.4-0.1l7.5-0.3c0.8,0,1.4-0.7,1.3-1.4C133.7,223.3,133,222.7,132.3,222.7z M111,223.6c-0.2-0.1-0.4-0.1-0.7-0.1l-11,0.4
						c-0.8,0-1.4,0.7-1.4,1.4c0.1,0.8,0.8,1.4,1.6,1.4l10.8-0.4h0.3c0.8,0,1.4-0.7,1.3-1.5C111.8,224.4,111.5,223.9,111,223.6z
						 M88.6,224.4c-0.2-0.1-0.3-0.1-0.5-0.1L77,224.7c-0.1,0-0.2,0-0.3,0.1c-0.7,0.1-1.2,0.7-1.1,1.4c0,0.1,0.1,0.3,0.1,0.4
						c0.2,0.6,0.8,1,1.5,1l10-0.4h1.2c0.8,0,1.4-0.7,1.4-1.5C89.7,225.1,89.2,224.5,88.6,224.4z M65.7,225.1l-11.3,0.4
						c-0.8,0-1.5,0.7-1.4,1.5s0.8,1.4,1.6,1.4l11.3-0.4c0.8,0,1.4-0.7,1.4-1.5C67.2,225.7,66.5,225.1,65.7,225.1z M43,225.9l-8,0.3
						h-0.4l-3,0.1c-0.8,0-1.5,0.7-1.4,1.5s0.8,1.4,1.6,1.4l1.6-0.1h0.4l9.5-0.4c0.8,0,1.5-0.7,1.4-1.5
						C44.5,226.5,43.8,225.9,43,225.9z M20,226.7l-2.2,0.1c0,1,0,1.9,0.1,2.9l2.3-0.1c0.9,0,1.5-0.7,1.4-1.5
						C21.5,227.3,20.8,226.7,20,226.7z"/>
				</g>
				<path class="st43" d="M206.5,268.3c-1.2-0.7-2.7-0.9-4-0.3l-40.7,17.4c-5.8,2.5-9.8,8.4-9.3,14.8l1.4,16.9
					c0.6,6.8,6,12.4,12.8,13.9l42.1,9.2c1.3,0.3,2.8-0.1,3.8-1s1.6-2.2,1.5-3.6l-5.5-64C208.4,270.3,207.7,269,206.5,268.3z"/>
				
					<linearGradient id="SVGID_31_" gradientUnits="userSpaceOnUse" x1="283.8371" y1="550.0394" x2="142.9893" y2="603.1895" gradientTransform="matrix(1 0 0 1 0 -284)">
					<stop  offset="0" style="stop-color:#AB316D"/>
					<stop  offset="1" style="stop-color:#792D3D"/>
				</linearGradient>
				<path class="st44" d="M193.4,305.5c0.8,9.1-6.1,17-15.3,17.6c-9.3,0.6-17.4-6.4-18.2-15.6s6.1-17.1,15.4-17.6
					C184.5,289.4,192.6,296.4,193.4,305.5z"/>
				<path class="st5" d="M193.5,303.3c0.7,8.7-5.8,16.2-14.5,16.7c-8.8,0.5-16.5-6.1-17.3-14.8s5.8-16.2,14.6-16.7
					S192.8,294.6,193.5,303.3z"/>
			</g>
		</g>
	</g>
	<g>
		<g>
			<path d="M1001.6,329.9c-1.4,2.6-3.2,4.9-5.5,6.7c-1.4,1.1-6.9,5.5-14.7,5.2c-1.8-0.1-3.5-0.4-5.2-0.9c-3.6-1.3-6.9-3.2-9.8-5.8
				c-4.9-4.6-51.4-54.7-114.5-123.8c1.2,59.2,0.9,102.3,0,110.1c-0.5,4.1-1.9,8-4.2,11.4c-1.4,1.9-3.1,3.5-5,4.9
				c-2.9,2.2-6.3,3.6-9.9,4.1c-4.4,0.5-8.9-0.3-12.8-2.4c-1.6-0.8-3-1.8-4.3-3c-1.7-1.5-3.2-3.2-4.4-5.2c-2.8-4.6-3.1-9.6-3.2-11.4
				c-0.4-7.6-0.5-79.1,0-176.8c0.1-2.9,0.7-5.7,1.9-8.3c1.4-3,3.4-5.7,6-7.9c1.8-1.5,3.8-2.7,5.9-3.6c2.7-1.1,5.5-1.6,8.4-1.6
				c3.2,0,6.4,0.8,9.3,2.2c2.9,1.4,5.4,3.4,7.5,5.9c37.7,43.7,75.5,87.3,113.2,131c-1.4-60.6-1.3-105.1,0-118c0.3-2.5,1-8,4.9-12.9
				c0.8-0.9,6.4-7.7,16-8.2c4.2-0.2,8.4,0.9,12.1,3c2.8,1.7,5.2,3.9,7.1,6.6c2.9,4.3,3.6,9,3.8,12.3c0.5,9.3,0.6,79.9,0,176.7
				C1004,323.7,1003.1,326.9,1001.6,329.9z"/>
		</g>
		<path d="M391.7,462.7c-0.6,3.7-1.7,7.3-3.3,10.8l0,0c-2,3.3-4.9,5.9-8.3,7.8c-2.8,1.5-5.9,2.4-9.1,2.6c-3.8,0.2-7.5-0.6-10.9-2.2
			c-3.1-1.5-5.8-3.8-7.9-6.5c-2.7-3.6-4.2-7.9-4.4-12.4L347.6,237c0.2-2.9,0.3-5.7,0.5-8.6c0-1.4,0.1-3.4,0.4-5.8
			c0.7-7.1,2-14.1,4.1-21c3.4-11.2,8.5-21.8,15.1-31.4c5.9-8.7,13-16.5,21.1-23.3c9-7.6,19.1-13.7,29.9-18.1
			c6-2.5,12.3-4.3,18.7-5.6c5.6-1.1,11.2-1.6,16.9-1.7c6.8,0,13.7,0.7,20.4,2.2c8.3,1.8,16.5,4.4,24.2,7.9
			c8.8,3.9,17.1,8.7,24.7,14.5c6.3,4.8,18.6,14.2,28.9,30.9c8.3,13.5,13.5,28.6,15.1,44.4c1.6,17.2-0.8,34.5-7.1,50.5
			c-4,10.1-9.5,19.6-16.2,28.1c-6.4,8-13.8,15.1-22.2,21.1c-7,5-14.6,9.2-22.7,12.5c-6.1,2.5-12.4,4.4-18.8,5.7
			c-7.8,1.6-15.7,2.4-23.6,2.3c-4.6-0.1-9.2-1.6-13-4.3c-2.2-1.6-4-3.6-5.5-5.9c-2.1-3.3-3.3-7.1-3.5-11c-0.1-3.1,0.5-6.3,1.7-9.2
			c1.4-3.3,3.5-6.2,6.3-8.4c4.2-3.4,9.4-5.1,14.8-5c7.2,0,14.3-1.1,21.1-3.4c7.9-2.6,15.1-6.7,21.5-12c5.2-4.4,9.8-9.5,13.4-15.3
			c2.4-3.8,4.4-7.8,6-11.9c1.9-4.9,3.2-9.9,3.8-15.1c0.9-6.7,0.8-13.4-0.4-20.1c-1.8-9.5-5.8-18.4-11.6-26.2
			c-4.3-5.7-9.5-10.8-15.3-14.9c-4.9-3.6-10.2-6.5-15.7-8.8c-5-2-12.9-5.2-23.6-5.3c-8,0-16,1.5-23.5,4.6c-9,3.8-17.2,9.5-23.8,16.7
			c-5.9,6.3-10.6,13.7-13.8,21.8c-3.5,9.1-5,18.8-4.5,28.4C392.5,364,392.5,458.2,391.7,462.7z"/>
		<path d="M687.6,121.6c17.5,0.1,30.4,5,39.2,8.5c11.4,4.5,22.1,10.6,31.8,18.1c2.8,2.2,5,5,6.5,8.2c1.7,3.8,2.3,7.9,1.8,12.1
			c-0.5,3.3-1.6,6.4-3.5,9.2c-2,3-4.7,5.5-7.8,7.2c-2.3,1.3-4.9,2.1-7.5,2.5c-2.7,0.4-5.5,0.2-8.1-0.4c-3.1-0.8-6-2.2-8.5-4.2
			c-1.1-0.9-2.6-2.1-4.5-3.4c-6.5-4.6-13.8-8.1-21.5-10.4c-7.5-2.3-15.5-3.1-23.3-2.4c-16.3,1.6-27.3,9.9-31.8,13.4
			c-10.2,7.9-17.9,18.6-22.2,30.7c-2.6,7.3-3.8,15-3.7,22.7c0.2,11.6,3.6,23,9.7,32.9c3.2,5.3,7.2,10.1,11.8,14.2
			c19.2,17.2,42.5,17,45.7,17c9.3-0.2,18.4-2.4,26.8-6.4c4.4-2.1,8.5-4.7,12.4-7.8c4-3.4,9-5.4,14.3-5.5c8.2,0,15.5,4.8,19.3,11.5
			c3.6,6.4,3.9,14.1,0.8,20.7c-1.4,2.8-3.3,5.3-5.7,7.3c-9.3,7.6-19.8,13.5-31.1,17.7c-12.3,4.6-25.3,6.9-38.4,6.9
			c-18.9,0-37.4-4.9-53.9-14.1c-11.3-6.4-21.5-14.7-29.9-24.7c-6.6-7.7-12-16.3-16.2-25.5c-6.8-14.9-10.2-31.1-10-47.5
			c0.4-14.6,3.7-29.1,9.8-42.4c5.7-12.5,13.6-23.8,23.4-33.5c5.9-5.9,20.2-19.9,43.6-27.5C666.7,123.4,677.1,121.7,687.6,121.6z"/>
		<path d="M770.7,213.2c4.5,0.4,8.9,1.9,12.6,4.6c1.5,1,2.8,2.2,4,3.5c3.3,3.9,5.2,8.8,5.3,13.8c0,5.4-2,10.7-5.7,14.7
			c-3.9,4.2-9.2,6.7-14.8,7.1c-27.8-0.1-55.5-0.3-83.3-0.4c-2.9-0.1-5.7-0.7-8.3-1.9c-2.3-1-4.4-2.5-6.2-4.2
			c-3.2-3.1-5.4-7.1-6.3-11.5c-0.8-3.9-0.4-8,1-11.7c1.5-4.1,4.2-7.6,7.7-10.2c2.9-2.1,6.3-3.6,9.8-4.2L770.7,213.2z"/>
	</g>
</g>
<g class="st0">
	<text transform="matrix(1 0 0 1 1057.9182 611.8155)" class="st1 st45 st46">Pay</text>
	<g class="st3">
		<g>
			<g>
				<g>
					<path d="M756.4,526.7c-25.5,0-46.1,20.6-46.1,46.1c0,11.7,4.4,22.4,11.6,30.6v-30.5c0-6.5,1.5-12.4,4.6-17.7
						c3-5.3,7.2-9.5,12.4-12.5s11-4.6,17.4-4.6s12.3,1.5,17.6,4.6c5.3,3,9.4,7.2,12.4,12.5s4.5,11.2,4.5,17.7s-1.4,12.4-4.2,17.7
						S780,600,775.1,603c0,0-2.4,1.5-5.2,2.5c-3.1,1.2-8.5,2.2-15.2,2.2c-3,0-5.5-2.5-5.5-5.5l0,0c0-3,2.3-5.4,5.3-5.5
						c0.8,0,1.5-0.1,2.1-0.2c2.6-0.3,5-0.5,7.9-1.7c1.5-0.6,2.7-1.3,3.2-1.6c3.4-2,6-4.8,8-8.4c2-3.5,2.9-7.5,2.9-11.9
						s-1-8.4-2.9-12c-2-3.6-4.6-6.4-8-8.4s-7.2-3.1-11.3-3.1c-2.9,0-5.5,0.5-8,1.5c-1.5,0.6-2.7,1.2-3.3,1.6
						c-0.8,0.5-2.2,1.4-3.7,2.8c-0.8,0.8-2.7,2.7-4.3,5.6c-2.4,4.7-2.5,9.1-2.3,11.3c0,8,0,15.9,0,23.9l0,0v17.3
						c6.5,3.5,13.9,5.4,21.7,5.4c25.5,0,46.1-20.6,46.1-46.1S781.8,526.7,756.4,526.7z M738.9,580.8c0.2-1.4,1.5-8.9,5.9-14.6
						c7.3-9.5,20.2-10,22.1-10.1c-1,2.4-1.9,5.2-2.8,8.2c-0.1,0.3-0.2,0.6-0.2,0.9c-2.7-0.1-6.1,0.2-9.7,1.3
						c-2.9,0.9-8.3,2.7-12.3,8.2c-1.5,2.2-2.5,4.4-3,6.4C738.8,581,738.9,580.9,738.9,580.8z M739.8,600.2c0-0.6-0.1-1.2-0.2-1.8
						c0.1-0.8,0.3-1.7,0.5-2.6C740,597.6,739.9,599.1,739.8,600.2z M741,593L741,593c-0.3,0.6-0.5,1.1-0.7,1.6
						c-0.3,0.9-0.6,1.7-0.8,2.5c-0.2,0.7-0.3,1.3-0.3,1.9c-0.2,1.6-0.1,2.8-0.1,3.3c-0.8-7.7-1.2-13.4-1.2-13.8
						c0-0.6,0.1-1.2,0.1-1.2c0-0.2,0-0.3,0-0.5c0.1-0.9,0.3-1.8,0.5-2.9v-0.1c1.3-5.1,3.9-8.1,3.9-8.1c3.4-4,8.1-5,10-5.4
						c4-0.9,7.4-0.3,10.1,0.2c0.2,0,0.5,0.1,0.7,0.1c1.1,0.2,2.2,0.5,3.1,0.8c1,0.3,1.9,0.6,2.6,0.9c0,2.6-0.1,5.3-0.3,8
						c-0.2,3.1-0.5,6.1-0.8,8.9c-1.9-1.3-6.9-4.2-13.5-3.8c-2.2,0.1-6.4,0.4-10,3.4C742.8,590.1,741.8,591.5,741,593z"/>
				</g>
			</g>
			<path class="st5" d="M740.3,594.6c0,0.4-0.1,0.8-0.1,1.2c-0.2,0.9-0.4,1.8-0.5,2.6c0-0.4-0.1-0.8-0.1-1.3
				C739.7,596.3,740,595.5,740.3,594.6z"/>
			<path class="st5" d="M763.8,565.3c-0.5,1.8-0.9,3.6-1.2,5.3c-2.7-0.5-6.1-1.1-10.1-0.2c-2,0.4-6.6,1.4-10,5.4c0,0-2.6,3-3.9,8.1
				v0.1c0-0.8,0.1-1.8,0.3-2.8c0.5-2,1.5-4.2,3-6.4c3.9-5.5,9.4-7.2,12.3-8.2C757.8,565.4,761.1,565.2,763.8,565.3z"/>
			<g>
				<path d="M741,593c-0.3,0.8-0.5,1.6-0.7,2.2c0,0.2-0.1,0.4-0.2,0.6c-0.2,0.9-0.4,1.8-0.5,2.6c-0.2,1-0.2,2-0.2,2.7
					c-0.1-0.7-0.1-1.4-0.2-2.1c0.1-0.6,0.2-1.3,0.3-1.9c0.2-0.8,0.4-1.7,0.8-2.5C740.5,594.1,740.7,593.6,741,593z"/>
			</g>
			<g>
				<path d="M767.5,565.6c-0.4,1.9-0.7,3.8-1.1,5.8c-0.9-0.3-1.9-0.5-3.1-0.8c-0.2,0-0.5-0.1-0.7-0.1c-2.7-0.5-6.1-1.1-10.1-0.2
					c-2,0.4-6.6,1.4-10,5.4c0,0-2.6,3-3.9,8.1v0.1c-0.3,1.1-0.4,2-0.5,2.9c0-1.3,0.2-3.4,0.8-5.7c0.5-2,1.5-4.2,3-6.4
					c3.9-5.5,9.4-7.2,12.3-8.2c3.6-1.2,7-1.4,9.7-1.3C765.2,565.3,766.5,565.5,767.5,565.6z"/>
			</g>
		</g>
		<g>
			<g>
				<path d="M1007.3,609.6c-0.4,0.8-1,1.5-1.7,2c-0.4,0.3-2.1,1.7-4.5,1.6c-0.5,0-1.1-0.1-1.6-0.3c-1.1-0.4-2.1-1-3-1.8
					c-1.5-1.4-15.6-16.6-34.7-37.5c0.3,17.9,0.3,31,0,33.4c-0.2,1.2-0.6,2.4-1.3,3.5c-0.4,0.6-0.9,1.1-1.5,1.5
					c-0.9,0.7-1.9,1.1-3,1.2c-1.3,0.2-2.7-0.1-3.9-0.7c-0.5-0.3-0.9-0.5-1.3-0.9c-0.5-0.5-1-1-1.3-1.6c-0.9-1.4-1-2.9-1-3.4
					c-0.1-2.3-0.1-24,0-53.6c0-0.9,0.2-1.7,0.6-2.5c0.4-0.9,1-1.7,1.8-2.4c0.5-0.5,1.1-0.8,1.8-1.1c0.8-0.3,1.7-0.5,2.5-0.5
					c1,0,1.9,0.2,2.8,0.7c0.9,0.4,1.7,1,2.3,1.8c11.4,13.2,22.9,26.5,34.3,39.7c-0.4-18.3-0.4-31.9,0-35.8c0.1-0.8,0.3-2.4,1.5-3.9
					c0.2-0.3,1.9-2.3,4.8-2.5c1.3,0,2.6,0.3,3.7,0.9c0.8,0.5,1.6,1.2,2.1,2c0.9,1.3,1.1,2.7,1.2,3.7c0.2,2.8,0.2,24.2,0,53.5
					C1008.1,607.8,1007.8,608.7,1007.3,609.6z"/>
			</g>
			<path d="M822.5,649.9c-0.2,1.1-0.5,2.2-1,3.3l0,0c-0.6,1-1.5,1.8-2.5,2.3c-0.8,0.5-1.8,0.7-2.8,0.8c-1.1,0.1-2.3-0.2-3.3-0.7
				c-0.9-0.5-1.8-1.2-2.4-2c-0.8-1.1-1.3-2.4-1.3-3.8l-0.1-68.4c0-0.9,0.1-1.7,0.2-2.6c0-0.4,0-1,0.1-1.8c0.2-2.2,0.6-4.3,1.2-6.3
				c1-3.4,2.6-6.6,4.6-9.5c1.8-2.6,4-5,6.4-7c2.7-2.3,5.8-4.1,9.1-5.5c1.8-0.8,3.7-1.3,5.7-1.7c1.7-0.3,3.4-0.5,5.1-0.5
				c2.1,0,4.1,0.2,6.2,0.7c2.5,0.5,5,1.3,7.3,2.4c2.7,1.2,5.2,2.6,7.5,4.4c1.9,1.4,5.6,4.3,8.8,9.4c2.5,4.1,4.1,8.7,4.6,13.4
				c0.5,5.2-0.3,10.5-2.2,15.3c-1.2,3.1-2.9,5.9-4.9,8.5c-1.9,2.4-4.2,4.6-6.7,6.4c-2.1,1.5-4.4,2.8-6.9,3.8
				c-1.8,0.8-3.8,1.3-5.7,1.7c-2.3,0.5-4.8,0.7-7.2,0.7c-1.4,0-2.8-0.5-3.9-1.3c-0.7-0.5-1.2-1.1-1.7-1.8c-0.6-1-1-2.2-1-3.3
				c0-1,0.1-1.9,0.5-2.8c0.4-1,1.1-1.9,1.9-2.6c1.3-1,2.9-1.5,4.5-1.5c2.2,0,4.3-0.3,6.4-1c2.4-0.8,4.6-2,6.5-3.6
				c1.6-1.3,3-2.9,4.1-4.6c0.7-1.1,1.3-2.3,1.8-3.6c0.6-1.5,1-3,1.2-4.6c0.3-2,0.2-4.1-0.1-6.1c-0.6-2.9-1.8-5.6-3.5-8
				c-1.3-1.7-2.9-3.3-4.6-4.5c-1.5-1.1-3.1-2-4.8-2.7c-1.5-0.6-3.9-1.6-7.2-1.6c-2.4,0-4.9,0.5-7.1,1.4c-2.7,1.2-5.2,2.9-7.2,5.1
				c-1.8,1.9-3.2,4.2-4.2,6.6c-1.1,2.7-1.5,5.7-1.3,8.6C822.7,620,822.7,648.5,822.5,649.9z"/>
			<path d="M912.2,546.5c5.3,0,9.2,1.5,11.9,2.6c3.5,1.4,6.7,3.2,9.6,5.5c0.8,0.7,1.5,1.5,2,2.5c0.5,1.1,0.7,2.4,0.5,3.7
				c-0.1,1-0.5,1.9-1,2.8c-0.6,0.9-1.4,1.7-2.4,2.2c-0.7,0.4-1.5,0.6-2.3,0.8c-0.8,0.1-1.7,0.1-2.5-0.1c-0.9-0.2-1.8-0.7-2.6-1.3
				c-0.3-0.3-0.8-0.6-1.3-1c-2-1.4-4.2-2.5-6.5-3.2s-4.7-1-7.1-0.7c-4.9,0.5-8.3,3-9.6,4.1c-3.1,2.4-5.4,5.6-6.7,9.3
				c-0.8,2.2-1.2,4.5-1.1,6.9c0.1,3.5,1.1,7,2.9,10c1,1.6,2.2,3,3.6,4.3c5.8,5.2,12.9,5.2,13.8,5.1c2.8-0.1,5.6-0.7,8.1-2
				c1.3-0.6,2.6-1.4,3.8-2.3c1.2-1,2.7-1.6,4.3-1.7c2.5,0,4.7,1.5,5.9,3.5c1.1,1.9,1.2,4.3,0.2,6.3c-0.4,0.8-1,1.6-1.7,2.2
				c-2.8,2.3-6,4.1-9.4,5.4c-3.7,1.4-7.7,2.1-11.6,2.1c-5.7,0-11.3-1.5-16.3-4.3c-3.4-1.9-6.5-4.5-9.1-7.5c-2-2.3-3.6-4.9-4.9-7.7
				c-2.1-4.5-3.1-9.4-3-14.4c0.1-4.4,1.1-8.8,3-12.9c1.7-3.8,4.1-7.2,7.1-10.2c1.8-1.8,6.1-6,13.2-8.3
				C905.8,547,909,546.5,912.2,546.5z"/>
			<path d="M937.3,574.3c1.4,0.1,2.7,0.6,3.8,1.4c0.4,0.3,0.8,0.7,1.2,1.1c1,1.2,1.6,2.7,1.6,4.2c0,1.7-0.6,3.2-1.7,4.5
				c-1.2,1.3-2.8,2-4.5,2.2c-8.4,0-16.8-0.1-25.2-0.1c-0.9,0-1.7-0.2-2.5-0.6c-0.7-0.3-1.3-0.8-1.9-1.3c-1-0.9-1.6-2.2-1.9-3.5
				c-0.2-1.2-0.1-2.4,0.3-3.5c0.5-1.2,1.3-2.3,2.3-3.1c0.9-0.7,1.9-1.1,3-1.3L937.3,574.3z"/>
		</g>
	</g>
</g>
</svg>
